<?xml version="1.0" encoding="utf-8"?>
<!-- Generator: Adobe Illustrator 24.0.0, SVG Export Plug-In . SVG Version: 6.00 Build 0)  -->
<svg version="1.1" id="Layer_1" xmlns="http://www.w3.org/2000/svg" xmlns:xlink="http://www.w3.org/1999/xlink" x="0px" y="0px"
	 viewBox="0 0 528.29 81.51" style="enable-background:new 0 0 528.29 81.51;" xml:space="preserve">
<style type="text/css">
	.st0{fill:#FFFFFF;}
</style>
<g>
	<path class="st0" d="M33.56,1.74c0,0.2-0.05,0.3-0.15,0.3c-1.36,0-2.36,0.41-3.01,1.22c-0.65,0.81-0.97,2.08-0.97,3.8v26.05
		c0,0.1-0.08,0.17-0.25,0.2c-0.17,0.03-0.28,0.02-0.35-0.05L5.67,5.52l-0.15-0.2v21.62c0,1.72,0.31,2.98,0.94,3.78
		c0.63,0.8,1.61,1.19,2.93,1.19c0.1,0,0.15,0.1,0.15,0.3c0,0.2-0.05,0.3-0.15,0.3c-0.8,0-1.43-0.02-1.89-0.05l-2.54-0.05l-2.63,0.05
		c-0.5,0.03-1.21,0.05-2.14,0.05c-0.07,0-0.1-0.1-0.1-0.3c0-0.2,0.03-0.3,0.1-0.3c1.42,0,2.46-0.4,3.11-1.19
		c0.65-0.8,0.97-2.05,0.97-3.78V4.03C2.92,2.7,1.54,2.04,0.15,2.04C0.05,2.04,0,1.94,0,1.74c0-0.2,0.05-0.3,0.15-0.3l1.84,0.05
		c0.4,0.03,0.96,0.05,1.69,0.05l2.34-0.05c0.27-0.03,0.61-0.05,1.04-0.05c0.26,0,0.46,0.06,0.57,0.17C7.75,1.73,7.94,1.99,8.2,2.39
		C8.6,2.98,9,3.53,9.4,4.03l18.79,22.77V7.06c0-1.72-0.3-2.99-0.89-3.8c-0.6-0.81-1.57-1.22-2.93-1.22c-0.07,0-0.1-0.1-0.1-0.3
		c0-0.2,0.03-0.3,0.1-0.3l1.94,0.05c1.06,0.07,1.91,0.1,2.54,0.1c0.63,0,1.47-0.03,2.54-0.1l2.04-0.05
		C33.51,1.44,33.56,1.54,33.56,1.74z"/>
	<path class="st0" d="M66.02,24.93c0.2,0.02,0.3,0.07,0.3,0.17c-0.3,2.15-0.45,4.37-0.45,6.66c0,0.27-0.06,0.46-0.17,0.57
		c-0.12,0.12-0.32,0.17-0.62,0.17H44.05c-0.07,0-0.1-0.1-0.1-0.3c0-0.2,0.03-0.3,0.1-0.3c1.23,0,2.12-0.08,2.68-0.25
		c0.56-0.17,0.94-0.49,1.14-0.97c0.2-0.48,0.3-1.22,0.3-2.21V5.47c0-0.99-0.1-1.72-0.3-2.19c-0.2-0.46-0.58-0.79-1.14-0.97
		c-0.56-0.18-1.46-0.27-2.68-0.27c-0.07,0-0.1-0.1-0.1-0.3c0-0.2,0.03-0.3,0.1-0.3h20.18c0.3,0,0.45,0.15,0.45,0.45l0.1,6.21
		c0,0.1-0.09,0.15-0.27,0.15c-0.18,0-0.27-0.05-0.27-0.15c-0.2-1.79-0.81-3.16-1.84-4.13c-1.03-0.96-2.37-1.44-4.03-1.44h-2.73
		c-1.56,0-2.58,0.22-3.08,0.65c-0.5,0.43-0.75,1.26-0.75,2.49v10.14h5.72c1.66,0,2.86-0.28,3.6-0.84c0.75-0.56,1.12-1.47,1.12-2.73
		c0-0.07,0.1-0.1,0.3-0.1c0.2,0,0.3,0.03,0.3,0.1l-0.05,4.13c0,0.96,0.02,1.69,0.05,2.19l0.05,2.49c0,0.07-0.1,0.1-0.3,0.1
		c-0.2,0-0.3-0.03-0.3-0.1c0-1.46-0.38-2.51-1.14-3.16c-0.76-0.65-2.01-0.97-3.73-0.97H51.8v11.38c0,0.86,0.1,1.51,0.3,1.94
		c0.2,0.43,0.55,0.74,1.04,0.92c0.5,0.18,1.26,0.27,2.29,0.27h3.53c1.76,0,3.21-0.55,4.37-1.67c1.16-1.11,1.96-2.68,2.39-4.7
		C65.72,24.96,65.82,24.91,66.02,24.93z"/>
	<path class="st0" d="M122.64,1.74c0,0.2-0.05,0.3-0.15,0.3c-2.35,0-4.09,1.43-5.22,4.28l-10.34,26.15c-0.03,0.13-0.22,0.2-0.55,0.2
		c-0.27,0-0.45-0.07-0.55-0.2l-6.46-13.97l-5.52,13.97c-0.03,0.13-0.22,0.2-0.55,0.2c-0.27,0-0.45-0.07-0.55-0.2L80.38,5.57
		c-0.63-1.36-1.23-2.29-1.81-2.78c-0.58-0.5-1.37-0.75-2.36-0.75c-0.1,0-0.15-0.1-0.15-0.3c0-0.2,0.05-0.3,0.15-0.3l1.69,0.05
		c0.93,0.07,1.71,0.1,2.34,0.1c1.36,0,2.77-0.03,4.23-0.1c0.5-0.03,1.14-0.05,1.94-0.05c0.1,0,0.15,0.1,0.15,0.3
		c0,0.2-0.05,0.3-0.15,0.3c-0.96,0-1.67,0.11-2.11,0.32c-0.45,0.22-0.67,0.59-0.67,1.12c0,0.5,0.2,1.19,0.6,2.09L94.5,27.64
		l4.23-10.59L93.41,5.57c-0.56-1.26-1.14-2.16-1.74-2.71c-0.6-0.55-1.33-0.82-2.19-0.82c-0.1,0-0.15-0.1-0.15-0.3
		c0-0.2,0.05-0.3,0.15-0.3l1.69,0.05c0.8,0.07,1.51,0.1,2.14,0.1c1.13,0,2.22-0.03,3.28-0.1c0.33-0.03,0.78-0.05,1.34-0.05
		c0.1,0,0.15,0.1,0.15,0.3c0,0.2-0.05,0.3-0.15,0.3c-0.6,0-1.02,0.06-1.27,0.17c-0.25,0.12-0.37,0.32-0.37,0.62
		c0,0.36,0.31,1.28,0.94,2.73l3.38,7.26l2.68-6.76c0.43-0.99,0.65-1.82,0.65-2.49c0-1.03-0.66-1.54-1.99-1.54
		c-0.07,0-0.1-0.1-0.1-0.3c0-0.2,0.03-0.3,0.1-0.3l1.09,0.05c0.6,0.07,1.33,0.1,2.19,0.1c0.63,0,1.37-0.03,2.24-0.1l1.99-0.05
		c0.07,0,0.1,0.1,0.1,0.3c0,0.2-0.03,0.3-0.1,0.3c-1.09,0-2.06,0.32-2.88,0.97c-0.83,0.65-1.54,1.75-2.14,3.31l-3.18,7.9l6.31,13.42
		l8.5-21.43c0.27-0.73,0.4-1.36,0.4-1.89c0-1.52-1.19-2.29-3.58-2.29c-0.1,0-0.15-0.1-0.15-0.3c0-0.2,0.05-0.3,0.15-0.3l2.14,0.05
		c1.13,0.07,2.14,0.1,3.03,0.1c0.7,0,1.47-0.03,2.34-0.1l2.09-0.05C122.59,1.44,122.64,1.54,122.64,1.74z"/>
	<path class="st0" d="M159.67,30.92c-2.72-1.46-4.8-3.42-6.24-5.89c-1.44-2.47-2.16-5.2-2.16-8.18c0-3.18,0.82-5.98,2.46-8.4
		c1.64-2.42,3.89-4.28,6.74-5.59c2.85-1.31,6.05-1.96,9.59-1.96c1.76,0,3.41,0.16,4.95,0.47c1.54,0.32,2.81,0.77,3.8,1.37
		c0.26,0.13,0.42,0.24,0.47,0.32c0.05,0.08,0.09,0.34,0.12,0.77l0.65,6.02c0,0.1-0.09,0.17-0.27,0.2c-0.18,0.03-0.29,0-0.32-0.1
		c-0.73-2.42-1.96-4.39-3.68-5.92c-1.72-1.52-4.01-2.29-6.86-2.29c-2.52,0-4.8,0.58-6.84,1.74c-2.04,1.16-3.65,2.83-4.82,5.02
		c-1.18,2.19-1.76,4.72-1.76,7.61s0.58,5.56,1.74,8.03c1.16,2.47,2.88,4.46,5.15,5.97c2.27,1.51,5,2.26,8.18,2.26
		c2.29,0,3.89-0.44,4.8-1.32c0.91-0.88,1.37-2.46,1.37-4.75c0-1.72-0.11-2.92-0.32-3.6c-0.22-0.68-0.68-1.14-1.39-1.37
		c-0.71-0.23-1.98-0.35-3.8-0.35c-0.2,0-0.3-0.13-0.3-0.4c0-0.1,0.02-0.19,0.07-0.27c0.05-0.08,0.11-0.12,0.17-0.12
		c2.65,0.17,4.79,0.25,6.41,0.25c1.56,0,3.21-0.05,4.97-0.15c0.13,0,0.21,0.12,0.22,0.35c0.02,0.23-0.06,0.35-0.22,0.35
		c-0.8-0.03-1.35,0.07-1.67,0.32c-0.32,0.25-0.52,0.75-0.62,1.52c-0.1,0.76-0.15,2.09-0.15,3.98c0,1.49,0.06,2.55,0.17,3.18
		c0.12,0.63,0.17,1.03,0.17,1.19c0,0.2-0.03,0.33-0.1,0.4c-0.07,0.07-0.22,0.13-0.45,0.2c-4.11,0.89-7.66,1.34-10.64,1.34
		C165.59,33.11,162.39,32.38,159.67,30.92z"/>
	<path class="st0" d="M216.05,24.93c0.2,0.02,0.3,0.07,0.3,0.17c-0.3,2.15-0.45,4.37-0.45,6.66c0,0.27-0.06,0.46-0.17,0.57
		c-0.12,0.12-0.32,0.17-0.62,0.17h-21.03c-0.07,0-0.1-0.1-0.1-0.3c0-0.2,0.03-0.3,0.1-0.3c1.23,0,2.12-0.08,2.68-0.25
		c0.56-0.17,0.94-0.49,1.14-0.97c0.2-0.48,0.3-1.22,0.3-2.21V5.47c0-0.99-0.1-1.72-0.3-2.19c-0.2-0.46-0.58-0.79-1.14-0.97
		c-0.56-0.18-1.46-0.27-2.68-0.27c-0.07,0-0.1-0.1-0.1-0.3c0-0.2,0.03-0.3,0.1-0.3h20.18c0.3,0,0.45,0.15,0.45,0.45l0.1,6.21
		c0,0.1-0.09,0.15-0.27,0.15c-0.18,0-0.27-0.05-0.27-0.15c-0.2-1.79-0.81-3.16-1.84-4.13c-1.03-0.96-2.37-1.44-4.03-1.44h-2.73
		c-1.56,0-2.58,0.22-3.08,0.65c-0.5,0.43-0.75,1.26-0.75,2.49v10.14h5.72c1.66,0,2.86-0.28,3.6-0.84c0.75-0.56,1.12-1.47,1.12-2.73
		c0-0.07,0.1-0.1,0.3-0.1c0.2,0,0.3,0.03,0.3,0.1l-0.05,4.13c0,0.96,0.02,1.69,0.05,2.19l0.05,2.49c0,0.07-0.1,0.1-0.3,0.1
		c-0.2,0-0.3-0.03-0.3-0.1c0-1.46-0.38-2.51-1.14-3.16c-0.76-0.65-2.01-0.97-3.73-0.97h-5.62v11.38c0,0.86,0.1,1.51,0.3,1.94
		c0.2,0.43,0.55,0.74,1.04,0.92c0.5,0.18,1.26,0.27,2.29,0.27h3.53c1.76,0,3.21-0.55,4.37-1.67c1.16-1.11,1.96-2.68,2.39-4.7
		C215.75,24.96,215.85,24.91,216.05,24.93z"/>
	<path class="st0" d="M261.53,1.74c0,0.2-0.05,0.3-0.15,0.3c-1.36,0-2.36,0.41-3.01,1.22c-0.65,0.81-0.97,2.08-0.97,3.8v26.05
		c0,0.1-0.08,0.17-0.25,0.2c-0.17,0.03-0.28,0.02-0.35-0.05L233.65,5.52l-0.15-0.2v21.62c0,1.72,0.31,2.98,0.94,3.78
		c0.63,0.8,1.61,1.19,2.93,1.19c0.1,0,0.15,0.1,0.15,0.3c0,0.2-0.05,0.3-0.15,0.3c-0.8,0-1.43-0.02-1.89-0.05l-2.54-0.05l-2.63,0.05
		c-0.5,0.03-1.21,0.05-2.14,0.05c-0.07,0-0.1-0.1-0.1-0.3c0-0.2,0.03-0.3,0.1-0.3c1.42,0,2.46-0.4,3.11-1.19
		c0.65-0.8,0.97-2.05,0.97-3.78V4.03c-1.36-1.33-2.73-1.99-4.13-1.99c-0.1,0-0.15-0.1-0.15-0.3c0-0.2,0.05-0.3,0.15-0.3l1.84,0.05
		c0.4,0.03,0.96,0.05,1.69,0.05l2.34-0.05c0.27-0.03,0.61-0.05,1.04-0.05c0.26,0,0.46,0.06,0.57,0.17c0.12,0.12,0.31,0.37,0.57,0.77
		c0.4,0.6,0.8,1.14,1.19,1.64l18.79,22.77V7.06c0-1.72-0.3-2.99-0.89-3.8c-0.6-0.81-1.57-1.22-2.93-1.22c-0.07,0-0.1-0.1-0.1-0.3
		c0-0.2,0.03-0.3,0.1-0.3l1.94,0.05c1.06,0.07,1.91,0.1,2.54,0.1c0.63,0,1.47-0.03,2.54-0.1l2.04-0.05
		C261.48,1.44,261.53,1.54,261.53,1.74z"/>
	<path class="st0" d="M294,24.93c0.2,0.02,0.3,0.07,0.3,0.17c-0.3,2.15-0.45,4.37-0.45,6.66c0,0.27-0.06,0.46-0.17,0.57
		c-0.12,0.12-0.32,0.17-0.62,0.17h-21.03c-0.07,0-0.1-0.1-0.1-0.3c0-0.2,0.03-0.3,0.1-0.3c1.23,0,2.12-0.08,2.68-0.25
		c0.56-0.17,0.94-0.49,1.14-0.97c0.2-0.48,0.3-1.22,0.3-2.21V5.47c0-0.99-0.1-1.72-0.3-2.19c-0.2-0.46-0.58-0.79-1.14-0.97
		c-0.56-0.18-1.46-0.27-2.68-0.27c-0.07,0-0.1-0.1-0.1-0.3c0-0.2,0.03-0.3,0.1-0.3h20.18c0.3,0,0.45,0.15,0.45,0.45l0.1,6.21
		c0,0.1-0.09,0.15-0.27,0.15c-0.18,0-0.27-0.05-0.27-0.15c-0.2-1.79-0.81-3.16-1.84-4.13c-1.03-0.96-2.37-1.44-4.03-1.44h-2.73
		c-1.56,0-2.58,0.22-3.08,0.65c-0.5,0.43-0.75,1.26-0.75,2.49v10.14h5.72c1.66,0,2.86-0.28,3.6-0.84c0.75-0.56,1.12-1.47,1.12-2.73
		c0-0.07,0.1-0.1,0.3-0.1c0.2,0,0.3,0.03,0.3,0.1l-0.05,4.13c0,0.96,0.02,1.69,0.05,2.19l0.05,2.49c0,0.07-0.1,0.1-0.3,0.1
		c-0.2,0-0.3-0.03-0.3-0.1c0-1.46-0.38-2.51-1.14-3.16s-2-0.97-3.73-0.97h-5.62v11.38c0,0.86,0.1,1.51,0.3,1.94
		c0.2,0.43,0.55,0.74,1.04,0.92c0.5,0.18,1.26,0.27,2.29,0.27h3.53c1.76,0,3.21-0.55,4.37-1.67c1.16-1.11,1.96-2.68,2.39-4.7
		C293.7,24.96,293.8,24.91,294,24.93z"/>
	<path class="st0" d="M338.49,32.21c0,0.2-0.05,0.3-0.15,0.3h-6.81c-0.79,0-2.29-1.35-4.5-4.05c-2.2-2.7-4.9-6.47-8.08-11.31
		c-0.89,0.17-1.72,0.25-2.49,0.25c-0.17,0-0.95-0.05-2.34-0.15v11.24c0,1.03,0.1,1.77,0.3,2.24c0.2,0.46,0.58,0.78,1.14,0.94
		c0.56,0.17,1.46,0.25,2.68,0.25c0.1,0,0.15,0.1,0.15,0.3c0,0.2-0.05,0.3-0.15,0.3c-1.06,0-1.87-0.02-2.44-0.05l-3.53-0.05
		l-3.43,0.05c-0.63,0.03-1.47,0.05-2.54,0.05c-0.07,0-0.1-0.1-0.1-0.3c0-0.2,0.03-0.3,0.1-0.3c1.23,0,2.12-0.08,2.68-0.25
		c0.56-0.17,0.95-0.49,1.17-0.97c0.21-0.48,0.32-1.22,0.32-2.21V5.47c0-0.99-0.1-1.72-0.3-2.19c-0.2-0.46-0.58-0.79-1.14-0.97
		c-0.56-0.18-1.44-0.27-2.63-0.27c-0.1,0-0.15-0.1-0.15-0.3c0-0.2,0.05-0.3,0.15-0.3l2.44,0.05c1.39,0.07,2.54,0.1,3.43,0.1
		c0.7,0,1.36-0.02,1.99-0.05c0.63-0.03,1.18-0.07,1.64-0.1c1.23-0.1,2.37-0.15,3.43-0.15c2.65,0,4.71,0.59,6.19,1.76
		c1.47,1.18,2.21,2.76,2.21,4.75c0,1.79-0.52,3.41-1.57,4.87c-1.04,1.46-2.43,2.6-4.15,3.43c2.78,4.01,5.11,7.14,6.98,9.4
		c1.87,2.25,3.55,3.89,5.02,4.9c1.47,1.01,2.91,1.52,4.3,1.52C338.44,31.92,338.49,32.01,338.49,32.21z M317.06,16.21
		c2.49,0,4.26-0.55,5.32-1.67c1.06-1.11,1.59-2.84,1.59-5.2c0-2.62-0.55-4.48-1.64-5.59c-1.09-1.11-2.67-1.67-4.72-1.67
		c-1.29,0-2.2,0.24-2.71,0.72c-0.51,0.48-0.77,1.4-0.77,2.76v10.49C315.06,16.16,316.03,16.21,317.06,16.21z"/>
	<path class="st0" d="M380.44,32.21c0,0.2-0.07,0.3-0.2,0.3c-0.63,0-1.61-0.03-2.93-0.1c-1.33-0.07-2.3-0.1-2.93-0.1
		c-0.76,0-1.71,0.03-2.83,0.1c-1.06,0.07-1.89,0.1-2.49,0.1c-0.13,0-0.2-0.1-0.2-0.3c0-0.2,0.07-0.3,0.2-0.3
		c1.19,0,2.05-0.11,2.56-0.32c0.51-0.22,0.77-0.6,0.77-1.17c0-0.5-0.23-1.24-0.7-2.24l-4.28-8.95h-11.88l-2.93,6.81
		c-0.43,0.99-0.65,1.91-0.65,2.73c0,2.09,1.61,3.13,4.82,3.13c0.17,0,0.25,0.1,0.25,0.3c0,0.2-0.08,0.3-0.25,0.3
		c-0.6,0-1.46-0.03-2.58-0.1c-1.26-0.07-2.35-0.1-3.28-0.1c-0.83,0-1.84,0.03-3.03,0.1c-0.99,0.07-1.84,0.1-2.54,0.1
		c-0.17,0-0.25-0.1-0.25-0.3c0-0.2,0.08-0.3,0.25-0.3c0.93,0,1.71-0.17,2.36-0.52c0.65-0.35,1.27-0.97,1.86-1.86s1.26-2.2,1.99-3.93
		l10.49-24.56c0.07-0.1,0.2-0.15,0.4-0.15c0.2,0,0.32,0.05,0.35,0.15l11.83,24.66c1.13,2.42,2.09,4.06,2.88,4.92
		c0.79,0.86,1.71,1.29,2.73,1.29C380.38,31.92,380.44,32.01,380.44,32.21z M355.99,18.19h10.94l-5.77-12.03L355.99,18.19z"/>
	<path class="st0" d="M389.22,4.05c-1.11,1.11-1.91,2.93-2.41,5.44c-0.03,0.1-0.14,0.14-0.32,0.12c-0.18-0.02-0.27-0.06-0.27-0.12
		c0.13-0.93,0.28-2.42,0.45-4.47c0.17-2.05,0.25-3.61,0.25-4.67c0-0.17,0.1-0.25,0.3-0.25c0.2,0,0.3,0.08,0.3,0.25
		c0,0.73,0.89,1.09,2.68,1.09c2.85,0.1,6.18,0.15,9.99,0.15c1.96,0,4.03-0.03,6.21-0.1l3.38-0.05c1.19,0,2.08-0.08,2.66-0.25
		c0.58-0.17,0.95-0.5,1.12-0.99c0.03-0.13,0.13-0.2,0.3-0.2c0.17,0,0.25,0.07,0.25,0.2c-0.1,0.96-0.2,2.44-0.3,4.45
		c-0.1,2.01-0.15,3.62-0.15,4.85c0,0.07-0.09,0.1-0.27,0.1c-0.18,0-0.29-0.03-0.32-0.1c-0.13-2.55-0.72-4.37-1.76-5.47
		c-1.04-1.09-2.66-1.64-4.85-1.64c-1.33,0-2.28,0.07-2.86,0.2c-0.58,0.13-0.98,0.41-1.19,0.84c-0.22,0.43-0.32,1.14-0.32,2.14v22.92
		c0,1.03,0.11,1.77,0.32,2.24c0.21,0.46,0.65,0.78,1.29,0.94c0.65,0.17,1.68,0.25,3.11,0.25c0.07,0,0.1,0.1,0.1,0.3
		c0,0.2-0.03,0.3-0.1,0.3c-1.13,0-2.02-0.02-2.68-0.05l-3.93-0.05l-3.78,0.05c-0.66,0.03-1.59,0.05-2.78,0.05
		c-0.07,0-0.1-0.1-0.1-0.3c0-0.2,0.03-0.3,0.1-0.3c1.39,0,2.42-0.08,3.08-0.25c0.66-0.17,1.11-0.49,1.34-0.97
		c0.23-0.48,0.35-1.22,0.35-2.21V5.47c0-0.96-0.11-1.65-0.32-2.06c-0.22-0.41-0.61-0.69-1.19-0.82c-0.58-0.13-1.55-0.2-2.91-0.2
		C391.91,2.39,390.33,2.94,389.22,4.05z"/>
	<path class="st0" d="M433.83,30.72c0.2,0.46,0.58,0.78,1.14,0.94c0.56,0.17,1.46,0.25,2.68,0.25c0.07,0,0.1,0.1,0.1,0.3
		c0,0.2-0.03,0.3-0.1,0.3c-1.03,0-1.84-0.02-2.44-0.05l-3.58-0.05l-3.43,0.05c-0.63,0.03-1.48,0.05-2.54,0.05
		c-0.1,0-0.15-0.1-0.15-0.3c0-0.2,0.05-0.3,0.15-0.3c1.23,0,2.12-0.08,2.68-0.25c0.56-0.17,0.95-0.49,1.17-0.97
		c0.21-0.48,0.32-1.22,0.32-2.21V5.47c0-0.99-0.11-1.72-0.32-2.19c-0.22-0.46-0.61-0.79-1.17-0.97c-0.56-0.18-1.46-0.27-2.68-0.27
		c-0.1,0-0.15-0.1-0.15-0.3c0-0.2,0.05-0.3,0.15-0.3l2.54,0.05c1.39,0.07,2.54,0.1,3.43,0.1c0.96,0,2.17-0.03,3.63-0.1l2.39-0.05
		c0.07,0,0.1,0.1,0.1,0.3c0,0.2-0.03,0.3-0.1,0.3c-1.19,0-2.08,0.1-2.66,0.3c-0.58,0.2-0.97,0.54-1.17,1.02
		c-0.2,0.48-0.3,1.22-0.3,2.21v22.92C433.54,29.51,433.64,30.26,433.83,30.72z"/>
	<path class="st0" d="M457.42,30.95c-2.4-1.44-4.26-3.4-5.57-5.87c-1.31-2.47-1.96-5.16-1.96-8.08c0-3.41,0.86-6.34,2.58-8.77
		c1.72-2.44,3.94-4.27,6.64-5.49c2.7-1.23,5.46-1.84,8.28-1.84c3.15,0,5.92,0.74,8.3,2.21c2.39,1.48,4.22,3.42,5.49,5.84
		c1.28,2.42,1.91,4.99,1.91,7.71c0,3.02-0.79,5.78-2.39,8.3c-1.59,2.52-3.72,4.51-6.39,5.97c-2.67,1.46-5.56,2.19-8.67,2.19
		C462.57,33.11,459.83,32.39,457.42,30.95z M473.28,30.37c1.74-1.09,3.12-2.69,4.13-4.8c1.01-2.1,1.52-4.61,1.52-7.53
		c0-3.08-0.56-5.83-1.67-8.25c-1.11-2.42-2.69-4.31-4.75-5.67c-2.05-1.36-4.44-2.04-7.16-2.04c-3.55,0-6.31,1.17-8.3,3.5
		s-2.98,5.56-2.98,9.67c0,3.12,0.56,5.95,1.69,8.5c1.13,2.55,2.7,4.57,4.72,6.04c2.02,1.47,4.33,2.21,6.91,2.21
		C469.58,32.01,471.54,31.47,473.28,30.37z"/>
	<path class="st0" d="M528.29,1.74c0,0.2-0.05,0.3-0.15,0.3c-1.36,0-2.36,0.41-3.01,1.22c-0.65,0.81-0.97,2.08-0.97,3.8v26.05
		c0,0.1-0.08,0.17-0.25,0.2c-0.17,0.03-0.28,0.02-0.35-0.05L500.4,5.52l-0.15-0.2v21.62c0,1.72,0.31,2.98,0.94,3.78
		s1.61,1.19,2.93,1.19c0.1,0,0.15,0.1,0.15,0.3c0,0.2-0.05,0.3-0.15,0.3c-0.8,0-1.43-0.02-1.89-0.05l-2.54-0.05l-2.63,0.05
		c-0.5,0.03-1.21,0.05-2.14,0.05c-0.07,0-0.1-0.1-0.1-0.3c0-0.2,0.03-0.3,0.1-0.3c1.42,0,2.46-0.4,3.11-1.19s0.97-2.05,0.97-3.78
		V4.03c-1.36-1.33-2.73-1.99-4.13-1.99c-0.1,0-0.15-0.1-0.15-0.3c0-0.2,0.05-0.3,0.15-0.3l1.84,0.05c0.4,0.03,0.96,0.05,1.69,0.05
		l2.34-0.05c0.26-0.03,0.61-0.05,1.04-0.05c0.26,0,0.46,0.06,0.57,0.17c0.12,0.12,0.31,0.37,0.57,0.77c0.4,0.6,0.8,1.14,1.19,1.64
		l18.79,22.77V7.06c0-1.72-0.3-2.99-0.89-3.8c-0.6-0.81-1.57-1.22-2.93-1.22c-0.07,0-0.1-0.1-0.1-0.3c0-0.2,0.03-0.3,0.1-0.3
		l1.94,0.05c1.06,0.07,1.91,0.1,2.54,0.1c0.63,0,1.47-0.03,2.54-0.1l2.04-0.05C528.24,1.44,528.29,1.54,528.29,1.74z"/>
	<path class="st0" d="M138.1,80.4c0,0.2-0.05,0.3-0.15,0.3h-6.81c-0.8,0-2.3-1.35-4.5-4.05c-2.2-2.7-4.9-6.47-8.08-11.31
		c-0.9,0.17-1.72,0.25-2.49,0.25c-0.17,0-0.94-0.05-2.34-0.15v11.24c0,1.03,0.1,1.77,0.3,2.24c0.2,0.46,0.58,0.78,1.14,0.94
		c0.56,0.17,1.46,0.25,2.68,0.25c0.1,0,0.15,0.1,0.15,0.3c0,0.2-0.05,0.3-0.15,0.3c-1.06,0-1.87-0.02-2.44-0.05l-3.53-0.05
		l-3.43,0.05c-0.63,0.03-1.48,0.05-2.54,0.05c-0.07,0-0.1-0.1-0.1-0.3c0-0.2,0.03-0.3,0.1-0.3c1.23,0,2.12-0.08,2.68-0.25
		c0.56-0.17,0.95-0.49,1.17-0.97c0.22-0.48,0.32-1.22,0.32-2.21V53.66c0-0.99-0.1-1.72-0.3-2.19c-0.2-0.46-0.58-0.79-1.14-0.97
		c-0.56-0.18-1.44-0.27-2.63-0.27c-0.1,0-0.15-0.1-0.15-0.3c0-0.2,0.05-0.3,0.15-0.3l2.44,0.05c1.39,0.07,2.54,0.1,3.43,0.1
		c0.7,0,1.36-0.02,1.99-0.05c0.63-0.03,1.18-0.07,1.64-0.1c1.23-0.1,2.37-0.15,3.43-0.15c2.65,0,4.71,0.59,6.19,1.76
		c1.47,1.18,2.21,2.76,2.21,4.75c0,1.79-0.52,3.41-1.57,4.87c-1.04,1.46-2.43,2.6-4.15,3.43c2.78,4.01,5.11,7.14,6.98,9.4
		c1.87,2.25,3.55,3.89,5.02,4.9c1.47,1.01,2.91,1.52,4.3,1.52C138.05,80.1,138.1,80.2,138.1,80.4z M116.67,64.4
		c2.49,0,4.26-0.55,5.32-1.67c1.06-1.11,1.59-2.84,1.59-5.2c0-2.62-0.55-4.48-1.64-5.59c-1.09-1.11-2.67-1.67-4.72-1.67
		c-1.29,0-2.2,0.24-2.71,0.72c-0.51,0.48-0.77,1.4-0.77,2.76v10.49C114.67,64.35,115.65,64.4,116.67,64.4z"/>
	<path class="st0" d="M169.07,73.12c0.2,0.02,0.3,0.07,0.3,0.17c-0.3,2.15-0.45,4.37-0.45,6.66c0,0.27-0.06,0.46-0.17,0.57
		c-0.12,0.12-0.32,0.17-0.62,0.17H147.1c-0.07,0-0.1-0.1-0.1-0.3c0-0.2,0.03-0.3,0.1-0.3c1.23,0,2.12-0.08,2.68-0.25
		c0.56-0.17,0.94-0.49,1.14-0.97c0.2-0.48,0.3-1.22,0.3-2.21V53.66c0-0.99-0.1-1.72-0.3-2.19c-0.2-0.46-0.58-0.79-1.14-0.97
		c-0.56-0.18-1.46-0.27-2.68-0.27c-0.07,0-0.1-0.1-0.1-0.3c0-0.2,0.03-0.3,0.1-0.3h20.18c0.3,0,0.45,0.15,0.45,0.45l0.1,6.21
		c0,0.1-0.09,0.15-0.27,0.15c-0.18,0-0.27-0.05-0.27-0.15c-0.2-1.79-0.81-3.16-1.84-4.13c-1.03-0.96-2.37-1.44-4.03-1.44h-2.73
		c-1.56,0-2.58,0.22-3.08,0.65c-0.5,0.43-0.75,1.26-0.75,2.49V64h5.72c1.66,0,2.86-0.28,3.6-0.84c0.75-0.56,1.12-1.47,1.12-2.73
		c0-0.07,0.1-0.1,0.3-0.1c0.2,0,0.3,0.03,0.3,0.1l-0.05,4.13c0,0.96,0.02,1.69,0.05,2.19l0.05,2.49c0,0.07-0.1,0.1-0.3,0.1
		c-0.2,0-0.3-0.03-0.3-0.1c0-1.46-0.38-2.51-1.14-3.16c-0.76-0.65-2.01-0.97-3.73-0.97h-5.62v11.38c0,0.86,0.1,1.51,0.3,1.94
		c0.2,0.43,0.55,0.74,1.04,0.92c0.5,0.18,1.26,0.27,2.29,0.27h3.53c1.76,0,3.21-0.55,4.37-1.67c1.16-1.11,1.96-2.68,2.39-4.7
		C168.77,73.14,168.87,73.1,169.07,73.12z"/>
	<path class="st0" d="M187.66,58.63c0.63,0.96,1.39,1.77,2.29,2.44c0.9,0.66,2.15,1.48,3.78,2.44c1.69,1.03,3.02,1.91,3.98,2.63
		c0.96,0.73,1.78,1.64,2.46,2.73s1.02,2.39,1.02,3.88c0,1.62-0.41,3.08-1.22,4.37c-0.81,1.29-2,2.31-3.55,3.06
		c-1.56,0.75-3.4,1.12-5.52,1.12c-2.68,0-5.07-0.6-7.16-1.79c-0.17-0.1-0.28-0.22-0.35-0.35c-0.07-0.13-0.12-0.33-0.15-0.6
		l-0.55-6.96c-0.03-0.13,0.04-0.22,0.22-0.25c0.18-0.03,0.29,0.02,0.32,0.15c0.66,2.45,1.71,4.55,3.13,6.29
		c1.42,1.74,3.31,2.61,5.67,2.61c1.62,0,2.98-0.43,4.08-1.29c1.09-0.86,1.64-2.27,1.64-4.23c0-1.49-0.33-2.78-0.99-3.85
		c-0.66-1.08-1.47-1.99-2.41-2.73c-0.94-0.75-2.23-1.6-3.85-2.56c-1.62-1.03-2.88-1.88-3.78-2.56c-0.9-0.68-1.66-1.54-2.29-2.58
		c-0.63-1.04-0.94-2.28-0.94-3.7c0-1.69,0.45-3.12,1.34-4.3c0.89-1.18,2.07-2.05,3.53-2.63c1.46-0.58,3-0.87,4.62-0.87
		c2.05,0,4.03,0.38,5.92,1.14c0.5,0.23,0.75,0.53,0.75,0.89l0.3,5.97c0,0.13-0.09,0.22-0.27,0.25c-0.18,0.03-0.29-0.02-0.32-0.15
		c-0.33-1.76-1.08-3.41-2.24-4.97c-1.16-1.56-2.83-2.34-5.02-2.34c-1.76,0-3.09,0.51-4,1.54c-0.91,1.03-1.37,2.32-1.37,3.88
		C186.72,56.56,187.03,57.67,187.66,58.63z"/>
	<path class="st0" d="M221.77,78.91c0.2,0.46,0.58,0.78,1.14,0.94c0.56,0.17,1.46,0.25,2.68,0.25c0.07,0,0.1,0.1,0.1,0.3
		c0,0.2-0.03,0.3-0.1,0.3c-1.03,0-1.84-0.02-2.44-0.05l-3.58-0.05l-3.43,0.05c-0.63,0.03-1.48,0.05-2.54,0.05
		c-0.1,0-0.15-0.1-0.15-0.3c0-0.2,0.05-0.3,0.15-0.3c1.23,0,2.12-0.08,2.68-0.25c0.56-0.17,0.95-0.49,1.17-0.97
		c0.21-0.48,0.32-1.22,0.32-2.21V53.66c0-0.99-0.11-1.72-0.32-2.19c-0.22-0.46-0.61-0.79-1.17-0.97c-0.56-0.18-1.46-0.27-2.68-0.27
		c-0.1,0-0.15-0.1-0.15-0.3c0-0.2,0.05-0.3,0.15-0.3l2.54,0.05c1.39,0.07,2.54,0.1,3.43,0.1c0.96,0,2.17-0.03,3.63-0.1l2.39-0.05
		c0.07,0,0.1,0.1,0.1,0.3c0,0.2-0.03,0.3-0.1,0.3c-1.19,0-2.08,0.1-2.66,0.3c-0.58,0.2-0.97,0.54-1.17,1.02
		c-0.2,0.48-0.3,1.22-0.3,2.21v22.92C221.47,77.7,221.57,78.45,221.77,78.91z"/>
	<path class="st0" d="M247.22,80.75c-0.5-0.03-1.1-0.07-1.81-0.1c-0.71-0.03-1.5-0.05-2.36-0.05l-3.43,0.05
		c-0.63,0.03-1.48,0.05-2.54,0.05c-0.07,0-0.1-0.1-0.1-0.3c0-0.2,0.03-0.3,0.1-0.3c1.23,0,2.12-0.08,2.68-0.25
		c0.56-0.17,0.95-0.49,1.17-0.97c0.22-0.48,0.32-1.22,0.32-2.21V53.66c0-0.99-0.1-1.72-0.3-2.19c-0.2-0.46-0.58-0.79-1.14-0.97
		c-0.56-0.18-1.46-0.27-2.68-0.27c-0.07,0-0.1-0.1-0.1-0.3c0-0.2,0.03-0.3,0.1-0.3l2.49,0.05c1.46,0.07,2.6,0.1,3.43,0.1
		c1.26,0,2.5-0.05,3.73-0.15c1.59-0.07,2.65-0.1,3.18-0.1c3.45,0,6.49,0.66,9.15,1.99c2.65,1.33,4.71,3.13,6.16,5.42
		c1.46,2.29,2.19,4.86,2.19,7.71c0,3.22-0.75,6.06-2.26,8.53c-1.51,2.47-3.55,4.37-6.12,5.72s-5.38,2.01-8.42,2.01
		C249.65,80.9,248.51,80.85,247.22,80.75z M256.94,78.44c1.97-1.11,3.51-2.75,4.62-4.92c1.11-2.17,1.67-4.76,1.67-7.78
		c0-2.88-0.53-5.49-1.59-7.83c-1.06-2.34-2.56-4.18-4.5-5.54c-1.94-1.36-4.18-2.04-6.74-2.04c-1.42,0-2.52,0.08-3.28,0.25
		c-0.76,0.17-1.33,0.49-1.69,0.97c-0.37,0.48-0.55,1.22-0.55,2.21v22.37c0,1.46,0.36,2.49,1.07,3.08c0.71,0.6,2.11,0.9,4.2,0.9
		C252.7,80.1,254.96,79.55,256.94,78.44z"/>
	<path class="st0" d="M301.45,73.12c0.2,0.02,0.3,0.07,0.3,0.17c-0.3,2.15-0.45,4.37-0.45,6.66c0,0.27-0.06,0.46-0.17,0.57
		c-0.12,0.12-0.32,0.17-0.62,0.17h-21.03c-0.07,0-0.1-0.1-0.1-0.3c0-0.2,0.03-0.3,0.1-0.3c1.23,0,2.12-0.08,2.68-0.25
		c0.56-0.17,0.94-0.49,1.14-0.97c0.2-0.48,0.3-1.22,0.3-2.21V53.66c0-0.99-0.1-1.72-0.3-2.19c-0.2-0.46-0.58-0.79-1.14-0.97
		c-0.56-0.18-1.46-0.27-2.68-0.27c-0.07,0-0.1-0.1-0.1-0.3c0-0.2,0.03-0.3,0.1-0.3h20.18c0.3,0,0.45,0.15,0.45,0.45l0.1,6.21
		c0,0.1-0.09,0.15-0.27,0.15c-0.18,0-0.27-0.05-0.27-0.15c-0.2-1.79-0.81-3.16-1.84-4.13c-1.03-0.96-2.37-1.44-4.03-1.44h-2.73
		c-1.56,0-2.58,0.22-3.08,0.65c-0.5,0.43-0.75,1.26-0.75,2.49V64h5.72c1.66,0,2.86-0.28,3.6-0.84c0.75-0.56,1.12-1.47,1.12-2.73
		c0-0.07,0.1-0.1,0.3-0.1c0.2,0,0.3,0.03,0.3,0.1l-0.05,4.13c0,0.96,0.02,1.69,0.05,2.19l0.05,2.49c0,0.07-0.1,0.1-0.3,0.1
		c-0.2,0-0.3-0.03-0.3-0.1c0-1.46-0.38-2.51-1.14-3.16s-2-0.97-3.73-0.97h-5.62v11.38c0,0.86,0.1,1.51,0.3,1.94
		c0.2,0.43,0.55,0.74,1.04,0.92c0.5,0.18,1.26,0.27,2.29,0.27h3.53c1.76,0,3.21-0.55,4.37-1.67c1.16-1.11,1.96-2.68,2.39-4.7
		C301.16,73.14,301.25,73.1,301.45,73.12z"/>
	<path class="st0" d="M346.94,49.93c0,0.2-0.05,0.3-0.15,0.3c-1.36,0-2.36,0.41-3.01,1.22c-0.65,0.81-0.97,2.08-0.97,3.8V81.3
		c0,0.1-0.08,0.17-0.25,0.2c-0.17,0.03-0.28,0.02-0.35-0.05l-23.17-27.74l-0.15-0.2v21.62c0,1.72,0.31,2.98,0.94,3.78
		s1.61,1.19,2.93,1.19c0.1,0,0.15,0.1,0.15,0.3c0,0.2-0.05,0.3-0.15,0.3c-0.8,0-1.43-0.02-1.89-0.05l-2.54-0.05l-2.63,0.05
		c-0.5,0.03-1.21,0.05-2.14,0.05c-0.07,0-0.1-0.1-0.1-0.3c0-0.2,0.03-0.3,0.1-0.3c1.42,0,2.46-0.4,3.11-1.19s0.97-2.05,0.97-3.78
		V52.22c-1.36-1.33-2.73-1.99-4.13-1.99c-0.1,0-0.15-0.1-0.15-0.3c0-0.2,0.05-0.3,0.15-0.3l1.84,0.05c0.4,0.03,0.96,0.05,1.69,0.05
		l2.34-0.05c0.26-0.03,0.61-0.05,1.04-0.05c0.26,0,0.46,0.06,0.57,0.17c0.12,0.12,0.31,0.37,0.57,0.77c0.4,0.6,0.8,1.14,1.19,1.64
		l18.79,22.77V55.25c0-1.72-0.3-2.99-0.89-3.8c-0.6-0.81-1.57-1.22-2.93-1.22c-0.07,0-0.1-0.1-0.1-0.3c0-0.2,0.03-0.3,0.1-0.3
		l1.94,0.05c1.06,0.07,1.91,0.1,2.54,0.1c0.63,0,1.47-0.03,2.54-0.1l2.04-0.05C346.89,49.63,346.94,49.73,346.94,49.93z"/>
	<path class="st0" d="M381.02,49.51c1.44,0.28,2.86,0.75,4.25,1.42c0.23,0.13,0.37,0.26,0.42,0.37c0.05,0.12,0.09,0.37,0.12,0.77
		l0.65,6.06c0,0.1-0.09,0.17-0.27,0.2c-0.18,0.03-0.29-0.02-0.32-0.15c-1.62-5.53-5.05-8.3-10.29-8.3c-2.68,0-5.05,0.61-7.11,1.84
		c-2.06,1.23-3.65,2.97-4.8,5.24c-1.14,2.27-1.72,4.91-1.72,7.93c0,2.92,0.62,5.57,1.86,7.95c1.24,2.39,2.92,4.26,5.05,5.62
		c2.12,1.36,4.44,2.04,6.96,2.04c2.62,0,4.76-0.65,6.44-1.96c1.67-1.31,3.01-3.34,4-6.09c0.03-0.1,0.13-0.13,0.3-0.1
		c0.17,0.03,0.25,0.08,0.25,0.15l-0.5,5.57c-0.07,0.4-0.12,0.65-0.17,0.77c-0.05,0.12-0.19,0.24-0.42,0.37
		c-1.69,0.8-3.3,1.35-4.82,1.67c-1.52,0.31-3.23,0.47-5.12,0.47c-3.48,0-6.59-0.69-9.32-2.06c-2.73-1.38-4.87-3.3-6.41-5.77
		c-1.54-2.47-2.31-5.29-2.31-8.48c0-3.11,0.78-5.88,2.34-8.3c1.56-2.42,3.72-4.3,6.49-5.64c2.77-1.34,5.87-2.01,9.32-2.01
		C377.86,49.08,379.58,49.23,381.02,49.51z"/>
	<path class="st0" d="M420.91,73.12c0.2,0.02,0.3,0.07,0.3,0.17c-0.3,2.15-0.45,4.37-0.45,6.66c0,0.27-0.06,0.46-0.17,0.57
		c-0.12,0.12-0.32,0.17-0.62,0.17h-21.03c-0.07,0-0.1-0.1-0.1-0.3c0-0.2,0.03-0.3,0.1-0.3c1.23,0,2.12-0.08,2.68-0.25
		c0.56-0.17,0.94-0.49,1.14-0.97c0.2-0.48,0.3-1.22,0.3-2.21V53.66c0-0.99-0.1-1.72-0.3-2.19c-0.2-0.46-0.58-0.79-1.14-0.97
		c-0.56-0.18-1.46-0.27-2.68-0.27c-0.07,0-0.1-0.1-0.1-0.3c0-0.2,0.03-0.3,0.1-0.3h20.18c0.3,0,0.45,0.15,0.45,0.45l0.1,6.21
		c0,0.1-0.09,0.15-0.27,0.15c-0.18,0-0.27-0.05-0.27-0.15c-0.2-1.79-0.81-3.16-1.84-4.13c-1.03-0.96-2.37-1.44-4.03-1.44h-2.73
		c-1.56,0-2.58,0.22-3.08,0.65c-0.5,0.43-0.75,1.26-0.75,2.49V64h5.72c1.66,0,2.86-0.28,3.6-0.84c0.75-0.56,1.12-1.47,1.12-2.73
		c0-0.07,0.1-0.1,0.3-0.1c0.2,0,0.3,0.03,0.3,0.1l-0.05,4.13c0,0.96,0.02,1.69,0.05,2.19l0.05,2.49c0,0.07-0.1,0.1-0.3,0.1
		c-0.2,0-0.3-0.03-0.3-0.1c0-1.46-0.38-2.51-1.14-3.16s-2-0.97-3.73-0.97h-5.62v11.38c0,0.86,0.1,1.51,0.3,1.94
		c0.2,0.43,0.55,0.74,1.04,0.92c0.5,0.18,1.26,0.27,2.29,0.27h3.53c1.76,0,3.21-0.55,4.37-1.67c1.16-1.11,1.96-2.68,2.39-4.7
		C420.61,73.14,420.71,73.1,420.91,73.12z"/>
</g>
</svg>
