<?xml version="1.0" encoding="utf-8"?>
<!-- Generator: Adobe Illustrator 21.1.0, SVG Export Plug-In . SVG Version: 6.00 Build 0)  -->
<svg version="1.1" id="レイヤー_1" xmlns="http://www.w3.org/2000/svg" xmlns:xlink="http://www.w3.org/1999/xlink" x="0px"
	 y="0px" viewBox="0 0 524.4 70.2" style="enable-background:new 0 0 524.4 70.2;" xml:space="preserve">
<style type="text/css">
	.st0{fill:#4A565D;}
	.st1{fill:#49565D;}
	.st2{fill:#006E38;}
	.st3{fill:#070101;}
</style>
<g>
	<path class="st0" d="M418.4,29.6c-0.7-0.1-1.4-0.4-1.9-1c-1.1-0.9-2.3-1.7-3.6-2.2c-0.9-0.4-1.3-0.6-1.3-0.8s0.4-0.3,1.1-0.4
		c0.7-0.1,1.5-0.1,2.2,0c3.2,0.1,4.8,1.2,4.8,3.1c0.1,0.7-0.4,1.3-1,1.3C418.6,29.7,418.5,29.7,418.4,29.6"/>
	<path class="st0" d="M432.9,29.6c-2.5,3.9-5.7,7.3-9.4,10.1c-1.4,1.1-2.9,2.1-4.5,3.2c-1.1,0.8-2.4,1.6-3.7,2.1
		c-0.3,0-0.7-0.3-1.1-0.9c-0.4-0.5-0.7-1-0.9-1.6c-0.2-0.5-0.5-1.4,0-1.4c0.7,0.1,1.4,0.2,2.1,0.2c0.2,0,0.5-0.1,0.7-0.2
		c3.7-1.7,7.1-3.9,10.2-6.5c2.1-1.7,4-3.6,5.8-5.5c0.5-0.5,0.8-0.8,1-0.8s0.1,0,0.1,0.1S433.3,29,432.9,29.6"/>
	<path class="st0" d="M361.2,35.6c-0.3,0-1,0-2,0.1c-0.3,0-0.7,0.1-1,0.2c-0.2,0-0.4,0-0.6,0c-0.3-0.1-0.7-0.6-1-1.4
		c0,0-0.3-0.6-0.4-1c-0.2-0.7-0.2-1.1,0-1.3c0.1,0,0.2,0,0.5,0.2c0.4,0.2,0.7,0.4,1.1,0.5c0.8,0.2,1.6,0.3,2.5,0.3h9.5
		c0.9,0,3-0.1,6.7-0.1h2.9c1.5,0,2.2,0.4,2.3,1s-0.5,1-1.7,1.3c-1.4,0.2-2.9,0.2-4.4,0.2c-0.7,0-2.7,0-6,0c-2.1,0-3.9,0-5.2,0
		L361.2,35.6z"/>
	<path class="st0" d="M455.3,44.7c-0.6-0.1-1.1-0.4-1.5-0.9c-1-1-1.9-1.8-2.8-2.6c-0.9-0.8-1.9-1.6-2.9-2.3c-0.7-0.5-1.6-1-2.5-1.6
		c-1.3,1.4-2.8,2.7-4.3,3.8c-2.4,1.8-5.1,3.1-8,3.8c-0.8,0.2-1.2,0.2-1.2,0s0.2-0.4,0.9-0.7c2-0.9,3.8-2,5.6-3.3
		c1.3-0.9,2.5-1.9,3.7-3.1c1.3-1.3,2.5-2.8,3.6-4.2c1.1-1.5,2.1-3.1,3-4.7c-0.1,0-1.8,0.3-5.2,0.8c-0.5,0.1-1.3,0.2-2.4,0.4
		c-0.3,0-0.7,0.1-1,0.2c-0.3,0.1-0.5,0.1-0.8,0.2c-0.9-0.2-1.7-0.7-2.2-1.5c-0.2-0.3-0.4-0.6-0.2-0.7s0.3-0.1,0.8-0.1h1.3h1.6
		c0.8-0.1,2.2-0.2,4-0.4c1-0.1,2-0.2,3.6-0.4c0.3,0,0.5-0.1,0.7-0.3c0.2-0.1,0.4-0.3,0.6-0.3c0.4,0,1,0.1,1.8,1
		c0.7,0.7,0.9,1,0.9,1.3c0,0.3-0.2,0.6-0.5,0.8c-0.3,0.2-0.6,0.4-0.8,0.6c-0.2,0.2-0.9,1.1-2.5,3.2c-0.4,0.5-1.2,1.5-2.2,2.8
		c0.7,0.3,2,0.8,3.7,1.6c1.1,0.5,2.3,1.1,3.4,1.7c0.7,0.5,1.4,1,2.1,1.6c0.6,0.6,1,1.5,1,2.4C456.4,44.4,456,44.8,455.3,44.7"/>
	<path class="st0" d="M390.8,30c-0.1,0-0.1,0-0.2,0c-0.1,0.1-0.1,0.2,0,0.4c0.1,0.3,0.1,0.7,0,1.1c-0.2,0.9-0.6,1.7-1.2,2.4
		l-0.9,1.2c-0.7,0.9-1.5,1.8-2.3,2.7c-1.2,1.2-2.5,2.4-3.9,3.4c-0.5,0.4-0.7,0.6-0.6,0.7C381.9,42,382,42,382,42
		c0.1,0,0.3,0,0.4-0.1c0.6-0.1,1.1-0.3,1.6-0.6c1-0.5,2-1.1,2.9-1.8c1.4-1,2.7-2.2,3.8-3.5l0.1-0.1c0.5-0.6,1-1.2,1.4-1.7
		c0.4-0.4,0.7-1,0.8-1.6c-0.1-0.7-0.5-1.4-1.1-1.8C391.4,30.1,390.9,30,390.8,30"/>
	<path class="st0" d="M407.1,39.4c-0.2-0.8-0.5-1.5-0.9-2.2c-0.5-0.8-1-1.6-1.7-2.4c-0.9-1-1.6-1.8-2.3-2.3
		c-1.4-1.2-2.9-2.3-4.6-3.1c-1-0.5-1.5-0.7-1.7-0.5c-0.1,0-0.1,0.1-0.1,0.2c0,0.2,0.2,0.3,0.4,0.5l0.1,0.1c0,0,1,0.8,1.4,1.1
		c1.2,1.1,2.3,2.3,3.2,3.6c0.7,1,1.2,2,1.8,3l0.7,1.5l0.2,0.4c0.2,0.4,0.4,0.9,0.6,1.3c0.4,0.8,0.8,1.2,1.3,1.2c0.1,0,0.2,0,0.3,0
		c0.5,0,1-0.3,1.2-0.9C407.3,40.5,407.3,39.9,407.1,39.4"/>
	<path class="st0" d="M403.2,27.3c-0.1,0.1-0.2,0.3-0.4,0.3c-0.3,0.1-0.6,0-0.9-0.1l-1.5-2c-0.2-0.3-0.4-0.5-0.7-0.7
		c-0.5-0.4-0.7-0.7-0.6-0.8s0.4,0,1,0.1c0.6,0.2,1.2,0.4,1.8,0.7c1,0.5,1.5,1.1,1.5,1.8C403.3,26.9,403.3,27.1,403.2,27.3
		 M406.1,25.2c-0.1,0.1-0.2,0.3-0.4,0.3c-0.3,0.1-0.6,0.1-0.9-0.1c-0.3-0.4-0.9-1.1-1.6-1.9c-0.2-0.3-0.5-0.5-0.7-0.7
		c-0.5-0.4-0.7-0.7-0.7-0.8s0.4,0,1,0.1c0.6,0.2,1.3,0.4,1.9,0.6c1,0.4,1.5,1.1,1.5,1.8C406.2,24.8,406.2,25,406.1,25.2"/>
	<path class="st0" d="M354,27.9c-0.5,0.1-1.1,0.2-1.6,0.4c-0.7,0.5-1.8,1.2-3.3,2.2c-1.2,0.7-2.4,1.4-3.6,2c-0.8,2.7-2,5.3-3.5,7.8
		c-1.4,2.2-3.1,4.1-5.1,5.6c-0.7,0.5-1.4,0.9-1.6,0.7s0.2-0.6,0.5-0.9c1.7-1.9,3.2-3.9,4.4-6.2c1.3-2.3,2.2-4.8,2.6-7.4
		c0.1-0.6,0.1-1.3-0.1-1.9c-0.2-0.6-0.1-0.7,0.5-0.6c0.9,0.2,1.8,0.7,2.4,1.3c0.5-0.3,1.2-0.8,2.3-1.7c0.5-0.4,1.3-1.2,2.7-2.5
		c-4.5,0.1-8.9,0.5-13.4,1.1c-1.1,0.2-2.2,0.3-3.3,0.4c-0.6-0.3-1.1-0.7-1.4-1.2c-0.4-0.4-0.6-0.9-0.7-1.4c0-0.1,0-0.1,0.1-0.2
		c0.2,0,0.4,0,0.6,0c0.5,0.1,0.8,0.2,0.9,0.2c0.5,0,1,0,1.5,0l6.9-0.3l5.9-0.4c0.9,0,2-0.1,3.2-0.2c0.3-0.1,0.6-0.2,0.9-0.4
		c0.3-0.2,0.6-0.3,0.9-0.3c0.4,0,0.9,0.4,1.4,1.1c0.8,1.1,1.1,1.8,1,2.1S354.6,27.7,354,27.9"/>
	<path class="st0" d="M165.1,36.3c-1,1-2.6,1-3.6,0c-0.5-0.5-0.7-1.1-0.7-1.8c0-0.7,0.3-1.3,0.7-1.8c1-1,2.6-1,3.6,0
		c0.5,0.5,0.7,1.1,0.7,1.8C165.8,35.2,165.6,35.9,165.1,36.3"/>
	<path class="st0" d="M191.4,22.6c-0.6-0.6-1.5-0.9-2.3-0.9c-0.8,0-1.5,0.3-2.1,0.9c-0.6,0.5-0.9,1.3-0.9,2.1c0,1.8,1.5,3.3,3.3,3.4
		c0.8,0,1.6-0.3,2.1-0.9c0.5-0.6,0.8-1.3,0.8-2.1C192.4,24.1,192,23.3,191.4,22.6 M190.6,26.2c-0.3,0.4-0.8,0.5-1.2,0.5
		c-0.5,0-1-0.2-1.3-0.6c-0.4-0.4-0.6-0.9-0.6-1.4c0-0.9,0.7-1.7,1.6-1.7c0,0,0.1,0,0.1,0c0.5,0,1,0.2,1.3,0.5
		c0.4,0.4,0.6,0.9,0.5,1.4C191,25.4,190.9,25.8,190.6,26.2"/>
	<path class="st0" d="M253.3,30c-0.1,0-0.1,0-0.2,0c-0.1,0.1-0.1,0.2,0,0.4c0.1,0.3,0.1,0.7,0,1c-0.2,0.9-0.6,1.7-1.2,2.4l-0.9,1.2
		c-0.7,0.9-1.5,1.8-2.3,2.7c-1.2,1.2-2.5,2.4-3.9,3.4c-0.5,0.4-0.7,0.6-0.6,0.7s0.1,0.1,0.2,0.1c0.1,0,0.3,0,0.4-0.1
		c0.6-0.1,1.1-0.3,1.6-0.6c1-0.5,2-1.1,2.9-1.8c1.4-1,2.8-2.2,3.9-3.6l0.1-0.1c0.5-0.6,1-1.1,1.4-1.7c0.4-0.5,0.7-1,0.8-1.6
		c-0.1-0.7-0.5-1.4-1.1-1.8C253.9,30.1,253.5,30,253.3,30"/>
	<path class="st0" d="M269.7,39.4c-0.2-0.8-0.5-1.5-0.9-2.2c-0.5-0.8-1-1.6-1.7-2.4c-0.7-0.8-1.5-1.6-2.3-2.3
		c-1.4-1.2-2.9-2.3-4.5-3.1c-1-0.5-1.5-0.7-1.7-0.5c-0.1,0-0.1,0.1-0.1,0.2c0,0.2,0.2,0.3,0.4,0.5l0.1,0.1c0,0,1,0.8,1.4,1.1
		c1.2,1.1,2.3,2.3,3.2,3.6c0.7,1,1.2,2,1.8,3c0.2,0.5,0.5,1,0.7,1.5l0.2,0.4l0.6,1.3c0.4,0.8,0.8,1.2,1.3,1.2h0.3
		c0.6,0,1-0.3,1.2-0.9C269.8,40.5,269.8,39.9,269.7,39.4"/>
	<path class="st0" d="M177.4,30c-0.1,0-0.1,0-0.2,0c-0.1,0.1-0.1,0.2,0,0.4c0.1,0.3,0.1,0.7,0,1c-0.3,0.9-0.7,1.7-1.2,2.5l-0.9,1.2
		c-0.7,0.9-1.5,1.8-2.3,2.7c-1.2,1.2-2.5,2.4-3.9,3.4c-0.5,0.4-0.7,0.6-0.6,0.7s0.1,0.1,0.2,0.1c0.1,0,0.2,0,0.4,0
		c0.6-0.1,1.1-0.3,1.7-0.6c1-0.5,2-1.1,2.9-1.8c1.4-1,2.8-2.3,3.9-3.6l0.1-0.1c0.5-0.6,1-1.1,1.4-1.7c0.4-0.4,0.7-1,0.8-1.6
		c-0.1-0.7-0.5-1.4-1.1-1.8C178,30.1,177.6,30.1,177.4,30"/>
	<path class="st0" d="M193.8,39.4c-0.2-0.8-0.5-1.5-0.9-2.2c-0.5-0.8-1.1-1.6-1.7-2.4c-0.7-0.8-1.5-1.6-2.3-2.3
		c-1.4-1.2-2.9-2.3-4.6-3.1c-1-0.5-1.5-0.7-1.7-0.5c-0.1,0-0.1,0.1-0.1,0.2c0,0.2,0.2,0.3,0.4,0.5l0.1,0.1c0,0,1,0.8,1.4,1.1
		c1.2,1.1,2.3,2.3,3.2,3.6c0.7,1,1.3,2,1.8,3l0.7,1.5l0.2,0.4l0.6,1.3c0.4,0.8,0.8,1.2,1.3,1.2h0.3c0.5,0,1-0.3,1.2-0.9
		C194,40.5,194,39.9,193.8,39.4"/>
	<path class="st0" d="M155.2,25.6c-0.1,0.2-0.2,0.3-0.4,0.3c-0.3,0.1-0.6,0-0.9-0.1c-0.3-0.5-0.9-1.1-1.5-2
		c-0.2-0.3-0.5-0.5-0.7-0.7c-0.5-0.4-0.7-0.7-0.6-0.8s0.4,0,1,0.1c0.6,0.2,1.2,0.4,1.8,0.7c1,0.5,1.5,1.1,1.5,1.9
		C155.4,25.2,155.3,25.4,155.2,25.6 M158.1,23.6c-0.1,0.1-0.2,0.2-0.4,0.3c-0.3,0.1-0.6,0.1-0.9-0.1c-0.3-0.4-0.9-1.1-1.6-2
		c-0.2-0.3-0.5-0.5-0.7-0.7c-0.5-0.4-0.7-0.7-0.7-0.8s0.4,0,1,0.1c0.6,0.2,1.2,0.4,1.9,0.6c1,0.4,1.5,1.1,1.5,1.9
		C158.3,23.1,158.2,23.3,158.1,23.6"/>
	<path class="st0" d="M147.1,22.5c0.8,0.4,1.2,0.7,1.3,1c0,0.2,0,0.4,0,0.6c-0.1,0.3-0.2,0.7-0.2,1c-0.1,1-0.1,1.7-0.1,2.1v2.5
		l2.5-0.1c0.8-0.1,1.5-0.3,2.3-0.5c0.4-0.1,0.8-0.2,1.2-0.2c0.9,0.3,1.6,1,1.9,1.9c0,0.4,0,0.6-0.2,0.7c-0.5,0.1-1,0.2-1.5,0.1
		c-0.5,0-1.2-0.1-2.2-0.1c-0.4,0-1.1,0-2,0h-1.8v3.1c-0.1,1.3-0.3,2.6-0.6,3.8c-0.5,1.8-1.6,3.5-2.9,4.8c-0.8,0.8-1.7,1.5-2.7,2.1
		c-0.8,0.5-1.7,1-2.5,1.3c-0.5,0.2-0.8,0.2-0.9,0s0.1-0.4,0.5-0.7s1-0.6,1.7-1.3c1.9-1.4,3.4-3.3,4.2-5.6c0.6-1.8,0.9-3.7,0.9-5.6
		c0-0.7,0-1.4,0-2c-2.4,0.1-4.4,0.2-5.7,0.3c0,0.4,0.1,1.1,0.1,2.1l0.1,2c0,0.5,0,1-0.1,1.5c-0.2,0.5-0.4,0.8-0.8,0.8
		s-1-0.3-1.2-1.1c-0.3-0.6-0.4-1.2-0.3-1.8c0.2-1.1,0.2-2.2,0.1-3.3c-0.6,0.1-1.6,0.2-3,0.3c-0.4,0.1-1.2,0.2-2.2,0.3
		c-0.3,0-0.6-0.1-0.9-0.2c-0.3-0.2-0.6-0.4-0.9-0.7c-0.3-0.3-0.5-0.7-0.6-1.2c0,0,0-0.1,0-0.1c0.5-0.1,0.9-0.1,1.4,0
		c0.7,0,1.5,0,2.2-0.1c1.4-0.1,2.6-0.2,3.9-0.2c0-0.7-0.1-1.8-0.2-3.3c-0.1-0.6-0.2-1.2-0.3-1.7c0-0.3-0.1-0.6-0.3-0.9
		c-0.2-0.3-0.2-0.5-0.2-0.5c0.2-0.2,0.5-0.2,1.2,0.1c0.5,0.2,1,0.5,1.4,0.9c0.3,0.6,0.4,1.2,0.4,1.8c0,0,0,1.2,0.1,3.5
		c1.4,0,3.4-0.1,5.8-0.3c0-1,0-3-0.1-3.5c0-0.8-0.2-1.7-0.4-2.5c-0.1-0.4-0.3-0.8-0.5-1.1c-0.2-0.3-0.2-0.4-0.2-0.5
		c0.2-0.2,0.6-0.3,1.3,0C146.5,22.3,147.1,22.6,147.1,22.5"/>
	<path class="st0" d="M202,35.6c-0.3,0-1,0-2,0.1c-0.3,0-0.7,0.1-1,0.2c-0.2,0-0.4,0-0.6,0c-0.3-0.1-0.7-0.6-1-1.4
		c0,0-0.3-0.6-0.4-1c-0.2-0.7-0.2-1.1,0-1.3c0.1,0,0.2,0,0.5,0.2c0.4,0.2,0.7,0.3,1.1,0.4c0.8,0.2,1.6,0.3,2.5,0.4h9.5
		c0.9,0,3-0.1,6.7-0.1h2.9c1.5,0,2.2,0.4,2.3,1s-0.4,1-1.7,1.3c-1.4,0.2-2.9,0.2-4.4,0.2c-0.7,0-2.7,0-6,0c-2.1,0-3.9,0-5.2,0
		L202,35.6z"/>
	<path class="st0" d="M317.4,44.7c-0.6-0.1-1.1-0.4-1.5-0.9c-1-1-2-1.8-2.8-2.6c-0.9-0.8-1.9-1.6-2.9-2.3c-0.7-0.5-1.6-1-2.5-1.6
		c-1.3,1.4-2.8,2.7-4.3,3.8c-2.4,1.8-5.1,3.1-8,3.8c-0.8,0.2-1.2,0.2-1.2,0s0.2-0.4,0.9-0.7c2-0.9,3.8-2,5.6-3.3
		c1.3-0.9,2.5-1.9,3.7-3.1c1.3-1.3,2.5-2.8,3.6-4.2c1.1-1.5,2.1-3.1,3-4.7c-0.1,0-1.8,0.3-5.2,0.8c-0.5,0.1-1.3,0.2-2.4,0.3
		c-0.3,0.1-0.7,0.1-1,0.2c-0.3,0.1-0.6,0.1-0.8,0.1c-0.7,0-1.4-0.5-2.2-1.5c-0.2-0.4-0.3-0.6-0.2-0.7s0.3-0.1,0.8-0.1h1.3h1.6l4-0.4
		c1-0.1,2-0.2,3.6-0.4c0.3-0.1,0.5-0.2,0.7-0.3c0.2-0.1,0.4-0.2,0.6-0.3c0.4,0,1,0.1,1.8,1c0.7,0.7,0.9,1,0.9,1.4
		c0,0.3-0.2,0.6-0.5,0.8c-0.3,0.2-0.6,0.4-0.8,0.7c-0.9,1-1.7,2.1-2.5,3.2c-0.4,0.6-1.2,1.5-2.2,2.8c0.7,0.3,2,0.8,3.7,1.6
		c1.1,0.5,2.3,1.1,3.4,1.7c0.7,0.5,1.4,1,2.1,1.6c0.6,0.6,1,1.5,1,2.4C318.4,44.4,318,44.8,317.4,44.7"/>
	<path class="st0" d="M293.8,29.1c-0.6-0.7-1.4-1.2-2.3-1.5c-0.5,0-1,0.7-1.3,0.8c-0.9,0.1-1.8,0.1-2.5,0.1l-2.8,0.2v-1.1
		c0-0.3,0-1,0.1-2.2c0-0.3,0.1-0.7,0.2-1c0.1-0.2,0.1-0.4,0-0.6c-0.1-0.3-0.6-0.7-1.4-1.1c0,0-0.8-0.3-1.1-0.4
		c-0.8-0.2-1.2-0.2-1.4,0c0,0.1,0,0.3,0.2,0.5c0.2,0.4,0.4,0.8,0.6,1.2c0.2,0.9,0.3,1.8,0.4,2.7c0,0.3,0,1.3,0,2.2
		c-3.5,0.3-5.5,0.4-6.1,0.5c-0.6-0.5-1.1-0.9-1.4-1.1c-0.3-0.3-0.8-0.5-1.2-0.6c-0.2,0-0.3,0.1-0.3,0.4c0,0.3,0.1,0.6,0.2,0.9
		c0.2,0.5,0.3,1,0.4,1.4c0.2,0.9,0.5,1.8,0.6,2.7c0.3,1.5,0.5,2.7,0.6,3.6c0.1,0.5,0.2,1,0.4,1.4c0.4,0.8,0.9,1.1,1.4,1.1
		c0.8,0,1.1-0.6,1-1.9c-0.3-1.5-0.5-2.7-0.8-3.5c-0.3-1.3-0.5-2.3-0.6-2.8c3-0.2,5.3-0.4,6.8-0.5c3.4-0.2,5.7-0.3,6.9-0.3
		c-0.6,2.1-1.3,4.1-2.3,6c-0.9,1.8-2.1,3.5-3.5,5c-0.8,0.9-1.7,1.7-2.7,2.5c-0.8,0.7-1.6,1.3-2.5,1.8c-0.8,0.5-1.2,0.9-1.1,1
		s0.1,0.1,0.3,0.1c0.5-0.1,0.9-0.2,1.4-0.4c0.9-0.4,1.8-0.8,2.7-1.3c1.2-0.8,2.3-1.6,3.4-2.6c1.5-1.4,2.8-3,3.8-4.7
		c1.2-2,2.3-4,3.2-6.2c0.3-0.7,1.1-0.9,1.2-1.4C294.3,29.7,294.2,29.5,293.8,29.1"/>
	<path class="st0" d="M246,29.2c-0.5,0.3-0.8,0.7-1.1,1.2c-0.3,0.5-0.8,1.2-1.4,2.3c-0.7,1-1.3,2-2.1,3.2c-1.2,1.7-2.6,3.3-4.1,4.8
		c-2.3,2.1-4.9,3.8-7.8,5.1c-0.8,0.3-1.6,0.6-2.4,0.8c-0.6,0.1-0.9,0.1-1-0.1s0.2-0.3,0.7-0.6c2.6-1.4,5-3.1,7.3-5
		c1.2-1.1,2.4-2.3,3.4-3.7c1.2-1.5,2.3-3,3.2-4.6c0.2-0.4,0.9-1.5,2-3.6c-1,0.1-3.4,0.3-4.6,0.5c-0.5,0-1,0.1-1.4,0.2
		c-0.2-0.1-0.4-0.2-0.6-0.4c-0.2-0.2-0.5-0.3-0.7-0.5c-1.4,1.6-2.4,2.6-3.1,3.3c-0.5,0.4-1.1,1-2.1,1.7c-0.8,0.6-1.7,1.1-2.6,1.5
		c-0.8,0.4-1.2,0.5-1.3,0.3s0.1-0.5,0.6-0.9c1.9-1.5,3.6-3.3,5.1-5.2c0.8-1,1.4-2,2-3.1c0.4-0.7,0.7-1.5,0.9-2.4
		c0.1-0.3,0.1-0.7,0.1-1c0-0.2,0-0.5,0.1-0.6s0.5,0,0.8,0.2c0.4,0.2,0.7,0.5,1,0.8c0.6,0.6,1,1.1,1,1.2c-0.1,0.3-0.2,0.6-0.4,0.8
		L237,26c-0.3,0.5-0.7,0.8-1.3,1.8l3-0.3c1.2-0.1,3.6-0.3,4.3-0.5c0.2-0.1,0.4-0.2,0.6-0.3c0.1-0.1,0.2-0.2,0.4-0.2s0.4,0,0.8,0.2
		c0.4,0.3,0.9,0.6,1.2,1c0.6,0.6,0.6,0.8,0.5,1.1C246.4,29,246.2,29.2,246,29.2"/>
	<path class="st0" d="M470.8,31.3c0.4,0,0.7,0.1,1.1,0.1c0.8,0.2,1.6,0.5,2.4,0.9c0.5,0.3,0.7,0.9,0.7,1.4c0,0.3-0.1,0.6-0.3,0.8
		c-0.2,0.2-0.4,0.3-0.7,0.4c-0.3,0-0.6-0.2-0.9-0.4c-0.9-0.8-1.7-1.7-2.4-2.7c-0.1-0.1-0.2-0.2-0.2-0.3S470.7,31.3,470.8,31.3
		L470.8,31.3z M476.3,35.9c0.1,0.1,0.1,0.2,0.1,0.2c-0.1,0.4-0.2,0.8-0.3,1.1c-1.2,3.4-2,5.6-2.3,6.5c-0.2,0.6-0.3,1.2-0.4,1.7
		c-0.2,1-0.5,1.5-0.8,1.5s-0.7-0.4-1.1-1.2c-0.3-0.6-0.6-1.3-0.7-2c0-0.2,0.1-0.4,0.2-0.6c0.5-0.3,1-0.8,1.4-1.3
		c1.4-1.9,2.6-3.9,3.8-5.9C476.2,36,476.2,36,476.3,35.9L476.3,35.9z M473,25.1c0.4,0,0.8,0,1.2,0.1c0.9,0.2,1.7,0.5,2.5,0.9
		c0.5,0.3,0.7,0.8,0.7,1.4c0,0.3-0.1,0.6-0.3,0.8c-0.2,0.2-0.4,0.4-0.7,0.4c-0.3,0-0.7-0.2-0.9-0.4c-0.9-0.8-1.8-1.7-2.5-2.7
		c-0.1-0.1-0.2-0.2-0.2-0.3C472.8,25.2,472.9,25.1,473,25.1L473,25.1z M485,22.7c0.5,0,1.1,0.2,1.5,0.5c0.7,0.3,1.1,0.6,1.1,0.9v0.6
		c-0.3,1.2-0.4,2.4-0.5,3.6c0.6-0.2,1.3-0.4,1.9-0.7c0.4-0.2,0.7-0.3,1.1-0.3c1.1,0,1.7,0.3,1.7,0.8c0,0.3-0.2,0.5-0.7,0.6
		s-1.2,0.2-2,0.3c-0.5,0.1-1,0.2-1.5,0.2c-0.2,0-0.3,0-0.5,0c-0.1,1.2-0.1,2.5-0.2,4.1c1.5-0.2,2.7-0.4,3.5-0.5
		c0.8-0.1,1.5-0.2,2.3-0.2c0.5,0.1,0.9,0.3,1.4,0.5c0.7,0.4,1.1,0.7,1.1,1s-0.2,0.6-0.7,0.6c-0.4,0-0.8-0.1-1.2-0.1
		c-0.5-0.1-1-0.1-1.4-0.1c-1.9,0-3.8,0-5.6,0.1c-1.6,0.1-3.1,0.3-4.7,0.5c-0.8,0.2-1.7,0.4-2.8,0.7c-0.2,0-0.2,0-0.2,0.1
		c-0.4-0.1-0.8-0.3-1.2-0.5c-0.5-0.4-0.7-0.6-0.7-0.7s0.1-0.1,0.2-0.1c0.4,0,0.9-0.1,1.6-0.1l2.9-0.4c-0.1-1.8-0.3-3.5-0.6-5.2
		c-0.1-0.2-0.3-0.4-0.4-0.6c-0.1-0.1-0.2-0.2-0.2-0.4c0-0.2,0.2-0.4,0.5-0.4c0.5,0,0.9,0.1,1.3,0.4c0.6,0.2,1,0.5,1,0.7v0.3
		c-0.2,1.7-0.2,3.3-0.1,5l2.8-0.3c0.1-2.9,0.1-5.7-0.1-8.6c-0.1-0.4-0.3-0.7-0.5-1c-0.1-0.2-0.2-0.4-0.3-0.6
		C484.4,22.8,484.6,22.7,485,22.7L485,22.7z M484.7,40.7c0.1,0,0.1,0,0.1,0.1c0,0.2-0.1,0.4-0.2,0.6c-0.6,0.9-1.3,1.8-2.1,2.6
		c-0.6,0.7-1.2,1.3-1.7,2c-0.4,0.4-0.7,0.6-1,0.6c-0.5-0.1-0.9-0.4-1.2-0.8c-0.3-0.3-0.6-0.7-0.7-1.2c0-0.2,0.1-0.3,0.4-0.3
		c1-0.2,2-0.7,2.8-1.2c1.2-0.6,2.3-1.4,3.3-2.3C484.4,40.7,484.5,40.7,484.7,40.7L484.7,40.7z M480.2,37c0.3,0,0.6,0.1,0.9,0.2
		c0.7,0.2,1.3,0.5,1.9,0.8c0.4,0.3,0.5,0.8,0.5,1.3c0,0.3-0.1,0.5-0.3,0.7c-0.1,0.2-0.3,0.3-0.6,0.3c-0.3,0-0.5-0.2-0.7-0.4
		c-0.7-0.7-1.3-1.6-1.8-2.5c-0.1-0.1-0.2-0.2-0.2-0.3S480.1,37,480.2,37L480.2,37z M489.9,35.1c0.5,0.1,1.1,0.2,1.6,0.4
		c0.8,0.5,1.2,0.8,1.2,1.1s-0.2,0.3-0.5,0.3c-0.4,0.2-0.9,0.4-1.2,0.7c-1.3,1-2.7,1.8-4.2,2.4c-0.1,0-0.1,0-0.1-0.1c0,0,0,0,0,0
		c0.4-0.4,0.9-0.8,1.2-1.2c0.5-0.5,1-1.1,1.4-1.8c0.2-0.2,0.3-0.5,0.4-0.8c0-0.1-0.1-0.2-0.1-0.3c-0.1-0.1-0.1-0.3-0.1-0.4
		C489.3,35.2,489.5,35.1,489.9,35.1L489.9,35.1z M487.1,41.1c0.3,0,0.7,0.1,1,0.1c0.8,0.3,1.6,0.7,2.5,1.1c0.8,0.4,1.6,1,2.1,1.7
		c0.3,0.5,0.5,1,0.5,1.6c0,0.3-0.1,0.6-0.2,0.9c-0.1,0.2-0.3,0.4-0.6,0.4c-0.2,0-0.3,0-0.5-0.1c-0.7-0.6-1.3-1.2-1.9-1.9
		c-0.7-1-1.5-2-2.4-2.8c-0.5-0.4-0.7-0.8-0.7-1C486.9,41.2,486.9,41.1,487.1,41.1C487,41.1,487,41.1,487.1,41.1L487.1,41.1z"/>
	<path class="st0" d="M508.4,27.9c0.6,0.1,1.2,0.3,1.7,0.7c0.5,0.2,0.7,0.5,0.7,0.9c0,0.1-0.1,0.2-0.3,0.2c-0.2,0.3-0.4,0.6-0.6,0.9
		l0,0h0.1c0.6,0.3,1.2,0.7,1.7,1.2c1.4,1.4,3,2.7,4.7,3.8c2.5,1.5,5.2,2.8,8,3.7v0.2c0,0.1-0.2,0.2-0.5,0.2c-1.5,0.2-3,0.4-4.5,0.4
		c-0.5,0.1-0.9,0-1.3-0.3c-2.2-1.9-4.3-4-6.1-6.3c-0.6-0.6-1.1-1.2-1.8-1.8c-0.2-0.2-0.5-0.4-0.7-0.5c-1,1.6-2.2,3-3.5,4.4
		c-1.4,1.6-3,2.9-4.7,4.1c-1.2,0.8-2.6,1.5-3.9,2c-0.3,0.2-0.7,0.3-1,0.3V42c2.1-1.5,4.1-3.1,6-4.8c1.2-1.1,2.3-2.3,3.4-3.6
		c0.9-1,1.7-2.2,2.3-3.4c0.2-0.3,0.3-0.6,0.3-1c-0.2-0.3-0.2-0.7-0.2-1C508.1,28,508.2,27.9,508.4,27.9z M505.1,24.4
		c0.4,0.1,0.8,0.2,1.2,0.3c0.6,0.3,1,0.6,1,1c0,0.2-0.1,0.3-0.3,0.4c-0.6,0.5-1.1,1-1.5,1.6c-0.9,1.1-2,2.2-3.1,3.1
		c-0.7,0.5-1.3,0.8-2.1,1.1c-0.2,0.1-0.3,0.2-0.5,0.2c-0.1,0-0.2,0-0.2-0.1c0.9-0.9,1.8-1.8,2.6-2.8c0.9-1,1.7-2.2,2.3-3.4
		c0.3-0.4,0.4-0.9,0.3-1.3C504.7,24.4,504.9,24.4,505.1,24.4L505.1,24.4z M503.2,39.1c0.4,0,0.8,0.1,1.2,0.2
		c0.2,0.1,0.4,0.2,0.6,0.4c1.4-0.1,2.6-0.2,3.8-0.4c1.1-0.2,2.1-0.4,3.1-0.7c0.3-0.1,0.6-0.2,1-0.2c0.8,0.1,1.5,0.3,2.2,0.7
		c1.2,0.7,1.8,1.2,1.8,1.6c0,0.1-0.1,0.2-0.3,0.3c-0.5,0.3-0.9,0.7-1.3,1.1c-0.6,0.8-1.1,1.7-1.3,2.7c0,0,0,0.1,0,0.1
		c0.2,0.1,0.4,0.2,0.6,0.3c0.4,0.4,0.6,0.7,0.6,0.9c-0.1,0-0.2,0.1-0.3,0.1c-1.9,0-3.9,0-5.8,0.2c-1.6,0.1-2.6,0.2-3,0.2h-0.1
		l0.1,0.4c0,0.6-0.2,1-0.5,1c-0.2,0-0.4-0.1-0.5-0.4c-0.1-0.2-0.2-0.4-0.2-0.5c-0.4-1.2-0.6-2.4-0.6-3.7c-0.1-0.9-0.3-1.7-0.6-2.5
		c-0.1-0.5-0.3-0.9-0.7-1.2C502.8,39.2,502.9,39.1,503.2,39.1L503.2,39.1z M505.8,45.4c0.7,0,1.8-0.1,3.1-0.2s2.2-0.1,3.1-0.2
		c0.4-0.7,0.7-1.5,0.8-2.3c0.2-0.6,0.3-1.2,0.3-1.8c0.1-0.5-0.3-0.9-0.7-1c-0.1,0-0.2,0-0.2,0c-0.6,0-1.7,0.1-3.5,0.3
		c-1.5,0.2-2.6,0.3-3.2,0.4L505.8,45.4z M511.4,24.2c0.6,0,1.1,0.1,1.7,0.2c1.2,0.3,2.4,0.7,3.5,1.4c0.7,0.5,1,1.3,1,2.2
		c0,0.2-0.1,0.4-0.2,0.5c-0.1,0.1-0.2,0.2-0.4,0.2c-0.5,0-1-0.2-1.4-0.5c-1.5-1-2.8-2.2-4-3.5c-0.2-0.2-0.4-0.3-0.4-0.4
		S511.3,24.2,511.4,24.2z"/>
</g>
<path class="st1" d="M12.7,55.6L12.7,55.6c-0.1,0-0.1,0.4-0.2,0.5c-0.1,0.2-0.4,0.3-2.1,0.3H2.5c-0.5,0-0.6,0-0.8-0.4v-0.1H1V56
	c-0.2,1.2-0.7,2.7-1,3.6v0.2h0.9v-0.1c0.3-0.6,0.6-1.2,1-1.8c0.3-0.4,0.8-0.6,2.5-0.6h1.3c-0.1,0.3-2.1,9.7-2.1,9.7
	c-0.4,1.8-0.5,1.8-2.2,2H1.3l-0.2,0.8h6l0.2-0.8H7.1C6.2,69,5.7,69,5.5,68.7c-0.1-0.1-0.1-0.3-0.1-0.4c0-0.4,0.1-0.7,0.2-1.1
	c0,0,2-9.6,2-9.8h1.3c1.3,0,2.4,0.1,3.4,0.2c-0.7,3.5-1.6,8.1-2.6,12.3v0.1l0.3,0.3H10c0.5-0.2,0.9-0.3,1.4-0.4h0.1v-0.1
	c0.2-1,0.6-2.8,0.8-3.7c1-1.7,3.3-3.9,4.1-3.9h0.1c0,0,0.1,0.5-0.1,1.2l-1.1,4.8c-0.2,1-0.2,1.6,0,1.9c0.1,0.1,0.3,0.2,0.5,0.2
	c1.2-0.3,2.3-1,3.1-2l0.1-0.1l-0.4-0.7l-0.1,0.1c-0.4,0.4-0.8,0.7-1.3,0.9c0-0.2,0-0.3,0.1-0.5l1.1-4.9c0.1-0.4,0.2-0.8,0.2-1.2
	c0-0.3-0.1-0.6-0.2-0.9c-0.2-0.2-0.4-0.3-0.7-0.3c-0.5,0-1,0.2-1.4,0.4c-1.4,0.8-2.6,1.8-3.6,3c0.1-0.7,0.5-2.4,0.5-2.4
	c0.4-1.9,0.8-3.7,1.2-5.6c0-0.2,0-0.3,0.1-0.5c0-0.1,0-0.2-0.1-0.3c-0.1-0.1-0.1-0.1-0.2-0.1C13.7,55.2,13.2,55.4,12.7,55.6
	L12.7,55.6z"/>
<path class="st1" d="M22.1,61.7c-1.6,1.3-2.5,3.3-2.5,5.4c0,2.9,1.8,3.1,2.4,3.1c1,0,2.6-0.4,4.4-2.3l0.1-0.1L26,67.1l-0.1,0.1
	c-0.7,0.8-1.8,1.4-2.9,1.5c-1.3,0-1.5-1.3-1.5-2.2c0-0.2,0-0.3,0-0.5c2.5-0.6,5.4-1.8,5.4-3.7c0-1-0.8-1.8-1.8-1.8c0,0-0.1,0-0.1,0
	C23.9,60.6,22.9,61,22.1,61.7L22.1,61.7z M23.5,61.8c0.2-0.1,0.5-0.2,0.8-0.2c0.5,0,0.9,0.4,0.9,0.9c0,0,0,0.1,0,0.1
	c0,1-1.1,1.8-3.4,2.5C22.1,62.8,23.2,62,23.5,61.8z"/>
<path class="st1" d="M32,56.4l-0.2,0.8H32c0.8,0.1,1.2,0.2,1.3,0.4s0.1,0.6-0.1,1.3l-1.6,8.3c-0.3,1.7-0.5,1.7-2,1.9h-0.1l-0.2,0.8
	h5.7l0.2-0.8h-0.2c-0.9-0.1-1.4-0.2-1.6-0.4c-0.1-0.1-0.1-0.3-0.1-0.4c0-0.3,0.1-0.7,0.1-1c0,0,0.5-2.8,0.6-3.1l1.2,0.4h0.8
	c2.4-0.2,5-1.7,5-4.6c0-2.3-1.5-3.6-4.4-3.6L32,56.4z M35.3,58.3c0.1-0.6,0.2-0.8,0.4-0.9c0.3-0.1,0.5-0.2,0.8-0.2
	c1.3-0.1,2.5,0.8,2.6,2.1c0,0.2,0,0.3,0,0.5c0.1,1.9-1.3,3.5-3.1,3.6c-0.1,0-0.2,0-0.3,0c-0.5,0-0.9-0.1-1.4-0.2
	C34.4,63,35.3,58.3,35.3,58.3z"/>
<path class="st1" d="M42.4,62.1c-1.6,1.4-2.5,3.5-2.5,5.6c0,1.7,0.7,2.4,1.3,2.4c0.8-0.1,1.5-0.5,2-1c0.9-0.7,1.6-1.5,2.3-2.4
	c-0.1,0.6-0.3,1.4-0.3,1.4c-0.1,0.3-0.1,0.7-0.1,1c0,0.3,0,0.5,0.2,0.7c0.1,0.1,0.3,0.2,0.4,0.2c1.2-0.3,2.3-1.1,3.1-2.1l0.1-0.1
	l-0.4-0.8l-0.1,0.1c-0.4,0.4-0.8,0.7-1.3,1v-0.1c0-0.2,0-0.4,0.1-0.6c0.5-2.5,1.1-5.3,1.4-6.6v-0.1l-0.1-0.2h-0.1
	c-0.2,0-0.5,0-0.7-0.1h-0.1c-0.4-0.1-0.9-0.1-1.3-0.1C44.8,60.6,43.5,61.1,42.4,62.1z M41.9,67.4c0-1.9,0.7-4.3,2.1-5.3
	c0.4-0.3,0.9-0.4,1.4-0.4c0.4,0,0.8,0.1,1.2,0.2c0,0.1-0.1,0.3-0.1,0.3c-0.2,0.8-0.4,1.9-0.6,2.5c-0.7,1.5-3,3.9-3.7,3.9
	C42.1,68.6,41.9,68.3,41.9,67.4L41.9,67.4z"/>
<path class="st1" d="M52.6,63.3l0.1-0.3c0.1-0.5,0.2-1,0.2-1.5c0-0.3,0-0.6-0.2-0.8c-0.1-0.1-0.2-0.2-0.4-0.2c-0.6,0-1.9,0.9-3,2
	l-0.1,0.1l0.4,0.7l0.1-0.1c0.4-0.4,0.8-0.7,1.3-0.9c0,0,0,0,0,0.1c0,0.2,0,0.5-0.1,0.7c-0.3,1.9-0.8,4.2-1.5,6.9v0.1l0.3,0.3h0.1
	c0.5-0.2,0.9-0.3,1.4-0.4h0.1v-0.1c0.2-1.5,0.5-2.7,0.8-4c0.4-0.9,0.9-1.7,1.4-2.5c0.4-0.5,0.7-0.8,0.9-0.8c0.2,0,0.4,0.1,0.6,0.3
	c0.2,0.2,0.5,0.2,0.6,0c0.2-0.2,0.4-0.4,0.6-0.6c0.2-0.3,0.2-0.7,0-1c-0.2-0.3-0.6-0.6-1-0.6C54.5,60.5,53.4,61.8,52.6,63.3z"/>
<path class="st1" d="M59.8,55.3c-0.8,0.3-1.6,0.5-2.4,0.6h-0.1l-0.2,0.8h0.8c0.3,0,0.6,0,0.6,0.1c0.1,0.2,0.1,0.4,0,0.6
	c-0.8,3.9-1.7,8-2.8,12.5v0.1l0.3,0.2h0.1c0.5-0.2,1-0.3,1.5-0.4h0.1l0.7-3.2c0,0,0.1-0.3,0.1-0.3c0.3-0.4,0.6-0.8,1-1.1
	c0.6,1.5,1.1,2.8,1.5,3.6c0.5,1,0.9,1.4,1.5,1.4c0.3,0,1.2-0.1,2.4-1.9l0.1-0.1l-0.5-0.6l-0.1,0.1c-0.6,0.7-0.9,0.9-1,0.9
	s-0.4-0.3-0.7-0.9c-0.7-1.3-1.2-2.6-1.7-3.9c0.6-0.8,1.5-1.4,2.5-1.6c0.2,0,0.5,0.1,0.7,0.2c0.2,0.1,0.4,0,0.5-0.1
	c0.3-0.2,0.4-0.6,0.5-0.9c0-0.4-0.3-0.8-1-0.8c-0.8,0-2,0.8-3.7,2.5c-0.5,0.4-0.9,0.9-1.4,1.4c0.2-0.8,1.9-8.6,1.9-8.6
	c0-0.1,0.1-0.3,0.1-0.4c0-0.1,0-0.2-0.1-0.2c-0.1-0.1-0.1-0.1-0.2-0.1C60.3,55.1,60,55.2,59.8,55.3L59.8,55.3z"/>
<path class="st1" d="M68.6,55.3c-0.8,0.3-1.6,0.5-2.4,0.6h-0.1L66,56.6h0.8c0.3,0,0.5,0,0.6,0.1s0.1,0.4-0.1,0.9
	c-0.8,4.2-1.7,8.4-2.6,12.2v0.1l0.3,0.3h0.1c0.5-0.2,0.9-0.3,1.4-0.4h0.1v-0.1c0.2-1,0.6-2.8,0.8-3.7c1-1.8,3.3-4,4.2-4
	c0,0,0.1,0,0.1,0c0.1,0.1,0.1,0.4-0.1,1.2L70.5,68c-0.2,1-0.2,1.6,0,1.9c0.1,0.1,0.3,0.2,0.5,0.2c1.2-0.3,2.3-1,3.1-2l0.1-0.1
	l-0.4-0.7l-0.1,0.1c-0.4,0.4-0.8,0.7-1.3,0.9c0-0.2,0-0.4,0.1-0.6l1.1-4.6c0.3-1.3,0.3-2.1-0.1-2.5c-0.2-0.2-0.4-0.3-0.7-0.3
	c-0.5,0-1,0.2-1.4,0.4c-1.4,0.8-2.5,1.8-3.5,3c0.2-0.9,1.7-7.9,1.7-7.9c0-0.2,0.1-0.4,0.1-0.5c0-0.1,0-0.2-0.1-0.2
	c0-0.1-0.1-0.1-0.2-0.1C69,55.1,68.8,55.2,68.6,55.3L68.6,55.3z"/>
<path class="st1" d="M77.9,61.2c-2,1.2-3.3,3.4-3.2,5.7c0,1.6,0.7,3.3,2.8,3.3c1.2,0,2.3-0.5,3.2-1.3c1.4-1.3,2.3-3.1,2.2-5.1
	c0-2.1-1.1-3.3-2.8-3.3C79.4,60.5,78.6,60.8,77.9,61.2z M76.7,66.8c0-3,1.3-4.7,2.1-5c0.2-0.1,0.5-0.2,0.7-0.2c1,0,1.5,0.9,1.5,2.3
	c0,2.6-1.1,4.7-2.2,5.1c-0.2,0.1-0.4,0.1-0.6,0.1C77.3,69.1,76.7,68.2,76.7,66.8z"/>
<path class="st1" d="M92.6,60.5L91.1,61c0,0-0.7,3.3-0.8,3.3c-0.9,1.6-3.1,4.1-4.1,4.1c0,0-0.1,0-0.1-0.1c-0.1-0.1-0.2-0.3,0-1.1
	l0.8-3.3l0.3-1.5c0.2-1,0.3-1.5,0.1-1.8c-0.1-0.1-0.3-0.2-0.4-0.2c-1.2,0.3-2.3,1-3.1,2l-0.1,0.1l0.3,0.8l0.2-0.1
	c0.4-0.4,0.8-0.7,1.3-0.9c0,0,0,0,0,0.1c0,0.1,0,0.3-0.1,0.4l-0.9,3.8l-0.2,0.9c-0.1,0.5-0.2,0.9-0.2,1.4c0,0.4,0.1,0.7,0.3,1
	c0.2,0.2,0.5,0.3,0.7,0.3c0.6,0,1.2-0.3,1.7-0.7c1.1-0.8,2.1-1.8,3-2.9c0,0.1-0.3,1.2-0.3,1.2c-0.1,0.5-0.2,0.9-0.2,1.4
	c0,0.3,0,0.5,0.2,0.7c0.1,0.1,0.3,0.2,0.5,0.2c0.7,0,2.1-1,3.1-2.1l0.1-0.1l-0.4-0.8l-0.1,0.1c-0.4,0.4-0.8,0.7-1.3,1
	c0,0,0-0.1,0-0.1c0-0.2,0-0.4,0.1-0.5c0.4-2.4,1-4.6,1.6-7.1v-0.2L92.6,60.5z"/>
<path class="st1" d="M95.9,61.5c-0.7,0.5-1.1,1.3-1.1,2.1c0,1.1,1,1.9,1.8,2.6s1.1,1.2,1.1,1.6c0,0.6-0.5,1.1-1.2,1.1c0,0,0,0,0,0
	c-0.8-0.1-1.4-0.5-1.8-1.2c-0.2-0.2-0.5-0.3-0.7-0.1c-0.4,0.2-0.6,0.6-0.7,1c0,0.8,1.1,1.6,2.2,1.6c1.7,0,3.8-1.6,3.8-3.2
	c0-1-0.6-1.6-1.8-2.5c-0.7-0.6-1.3-1-1.3-1.7c0-0.5,0.4-1,0.9-1c0,0,0.1,0,0.1,0c0.6,0,1.1,0.4,1.5,0.9c0.1,0.2,0.4,0.3,0.6,0.1
	c0,0,0,0,0,0c0.4-0.2,0.6-0.6,0.6-1c0-0.6-0.7-1.3-1.7-1.3C97.4,60.6,96.5,60.9,95.9,61.5z"/>
<path class="st1" d="M102.9,61.7c-1.6,1.3-2.5,3.3-2.5,5.4c0,2.9,1.8,3.1,2.4,3.1c1,0,2.6-0.4,4.4-2.3l0.1-0.1l-0.5-0.7l-0.1,0.1
	c-0.7,0.8-1.8,1.4-2.9,1.5c-1.2,0-1.4-1.3-1.4-2.2c0-0.2,0-0.4,0-0.5c2.5-0.6,5.4-1.8,5.4-3.7c0-1-0.8-1.8-1.8-1.8c0,0-0.1,0-0.1,0
	C104.7,60.6,103.7,61,102.9,61.7z M104.3,61.8c0.2-0.1,0.5-0.2,0.8-0.2c0.5,0,0.9,0.4,0.9,0.9c0,0,0,0.1,0,0.1c0,1-1.2,1.8-3.5,2.5
	C102.9,62.8,104,62,104.3,61.8L104.3,61.8z"/>
<path class="st2" d="M55.9,9.2C64,9.3,70.5,15.9,70.4,24c-0.1,8.1-6.7,14.6-14.8,14.6c-1,0-2-0.1-3-0.3V40
	c8.9,1.8,17.6-3.9,19.5-12.8c1.8-8.9-3.9-17.6-12.8-19.5c-1.1-0.2-2.3-0.3-3.4-0.3c-9.1,0.1-16.4,7.4-16.5,16.5v17.3
	c0.6,0.5,1.2,1.1,1.8,1.6V23.9C41.3,15.8,47.8,9.3,55.9,9.2z"/>
<path class="st2" d="M55.9,5.5c10.1,0,18.4,8.2,18.4,18.4S66,42.2,55.9,42.2c-1.1,0-2.2-0.1-3.2-0.3v1.8c11,1.8,21.4-5.7,23.1-16.7
	S70.1,5.7,59.1,3.9c-1.1-0.2-2.1-0.3-3.2-0.3c-11.1,0.1-20.1,9.1-20.2,20.2v12.8c0.6,0.9,1.2,1.7,1.8,2.5V23.9
	C37.6,13.8,45.8,5.6,55.9,5.5z"/>
<path class="st2" d="M55.9,12.9c6.1,0.4,10.6,5.7,10.2,11.8c-0.4,5.4-4.7,9.8-10.2,10.2c-1.1,0-2.2-0.2-3.3-0.5v1.9
	c1.1,0.3,2.2,0.4,3.3,0.4c7.1,0,12.8-5.7,12.8-12.8c0-7.1-5.7-12.8-12.8-12.8c-7,0.1-12.7,5.8-12.8,12.8V44c0.6,0.4,1.2,0.7,1.8,1
	V23.9C45,17.8,49.8,13,55.9,12.9z"/>
<path class="st2" d="M63.2,23.9c0,4-3.3,7.3-7.3,7.3c-1.1,0-2.3-0.3-3.3-0.8v2c1,0.4,2.1,0.6,3.3,0.6c5,0,9.1-4.1,9.1-9.1
	s-4.1-9.1-9.1-9.1c-5,0.1-9,4.1-9.1,9.1v22c0.6,0.2,1.2,0.5,1.8,0.7s0-22.7,0-22.7c0.1-4,3.3-7.2,7.3-7.3
	C59.9,16.6,63.2,19.8,63.2,23.9z"/>
<path class="st2" d="M55.9,0C42.7,0.1,32.1,10.7,32,23.9c0,3.1,0.6,6.2,1.8,9.1v-9.1c0-12.2,9.9-22.1,22.1-22.1s22.1,9.9,22.1,22.1
	c0,12.2-9.9,22.1-22.1,22.1c0,0,0,0-0.1,0c-1.1,0-2.2-0.1-3.2-0.2v1.8c1.1,0.2,2.2,0.2,3.2,0.2c13.2,0,23.9-10.7,23.9-23.8
	C79.7,10.7,69,0,55.9,0z"/>
<rect x="331.8" y="14.1" class="st3" width="192.7" height="44"/>
</svg>
