<svg viewBox="0 0 63.43 44.8" xmlns="http://www.w3.org/2000/svg"><g fill="#fff"><path d="m63.38 22.71a.83.83 0 0 0 0-.61.87.87 0 0 0 -.18-.26l-6.76-6.76a.8.8 0 1 0 -1.14 1.12l5.4 5.4h-18.8a.8.8 0 1 0 0 1.6h18.8l-5.4 5.4a.8.8 0 1 0 1.13 1.13l6.77-6.73a.81.81 0 0 0 .18-.26"/><path d="m.06 22.09a.83.83 0 0 0 0 .61.86.86 0 0 0 .17.3l6.77 6.73a.8.8 0 1 0 1.13-1.13l-5.4-5.4h18.8a.8.8 0 1 0 0-1.6h-18.8l5.4-5.4a.8.8 0 1 0 -1.13-1.13l-6.77 6.77a.8.8 0 0 0 -.18.26"/><path d="m31.76 0a.8.8 0 0 0 -.8.8v43.2a.8.8 0 0 0 1.6 0v-43.2a.8.8 0 0 0 -.8-.8"/></g></svg>