<svg xmlns="http://www.w3.org/2000/svg" width="70" height="70" viewBox="0 0 70 70"><defs><style>.cls-1{fill:#333;opacity:0.9;}.cls-2{fill:#fff;}.cls-3{fill:none;}</style></defs><g id="レイヤー_2" data-name="レイヤー 2"><g id="レイヤー_6" data-name="レイヤー 6"><rect class="cls-1" width="70" height="70" rx="4"/><g id="レイヤー_2-2" data-name="レイヤー 2"><g id="レイヤー_1-2" data-name="レイヤー 1-2"><path class="cls-2" d="M46.29,57.5H31a1.75,1.75,0,0,1-1.75-1.72,14.28,14.28,0,0,0-.72-5,28.68,28.68,0,0,0-4.82-5.67L23.64,45a5.7,5.7,0,0,1-1.54-4.15,4.17,4.17,0,0,1,1.33-3,4.12,4.12,0,0,1,5.82.08h0V27.17a4.28,4.28,0,1,1,8.55,0v5.17a3.82,3.82,0,0,1,1.43,0,3.35,3.35,0,0,1,2.26,1.38,4,4,0,0,1,2.27-.07A3.67,3.67,0,0,1,46,35.4a4.24,4.24,0,0,1,3.4.53,4.8,4.8,0,0,1,1.85,4v.52a22,22,0,0,1-.95,7.94,15.16,15.16,0,0,1-.64,1.38l-.12.25c0,.08-.1.16-.16.24a8.27,8.27,0,0,0-1.33,2.46c-.07.64-.07,2.44-.05,3.08A1.77,1.77,0,0,1,46.29,57.5ZM31.87,54.88h13.6a24.59,24.59,0,0,1,.08-2.53,9.83,9.83,0,0,1,1.81-3.68l.06-.14a10.41,10.41,0,0,0,.52-1.13,19,19,0,0,0,.8-6.94v-.62h0A2.25,2.25,0,0,0,48,38.12a1.5,1.5,0,0,0-1.75.09,1.29,1.29,0,0,1-1.34.32A1.31,1.31,0,0,1,44,37.46a1.44,1.44,0,0,0-.85-1.26,1.16,1.16,0,0,0-1.26.32l-.11.11a1.3,1.3,0,0,1-1.35.33,1.29,1.29,0,0,1-.88-1.07c-.11-.77-.24-.88-.8-1a.93.93,0,0,0-1.13.54,1.31,1.31,0,0,1-1.8.47,1.3,1.3,0,0,1-.65-1.12V27.17a1.66,1.66,0,1,0-3.31,0h0V41A1.34,1.34,0,0,1,31,42.24a1.31,1.31,0,0,1-1.36-.4l-1.14-1c-.53-.48-.83-.75-.95-.88a1.53,1.53,0,0,0-2.15-.23l-.12.1-.07.1A1.5,1.5,0,0,0,24.72,41a2.89,2.89,0,0,0,.78,2.1h0a30.74,30.74,0,0,1,5.33,6.38A14.3,14.3,0,0,1,31.87,54.88Z"/></g></g><g id="レイヤー_2-3" data-name="レイヤー 2"><g id="レイヤー_1-2-2" data-name="レイヤー 1-2"><line class="cls-3" x1="20.26" y1="17.7" x2="27.66" y2="17.7"/><path class="cls-2" d="M27.66,18.71h-7.4a1,1,0,0,1-.18-2,.54.54,0,0,1,.18,0h7.4a1,1,0,0,1,.19,2Z"/><path class="cls-2" d="M25.07,22.89a1,1,0,0,1-.63-.22L19,18.34a1,1,0,0,1-.38-.76,1,1,0,0,1,.4-.75l5.4-4.13a1,1,0,0,1,1.41.2,1,1,0,0,1-.2,1.4h0l-4.41,3.32,4.43,3.54a1,1,0,0,1,0,1.42A1,1,0,0,1,25.07,22.89Z"/><line class="cls-3" x1="45.88" y1="17.7" x2="38.47" y2="17.7"/><path class="cls-2" d="M45.88,18.71H38.47a1,1,0,0,1-.19-2,.61.61,0,0,1,.19,0h7.41a1,1,0,0,1,0,2Z"/><path class="cls-2" d="M41.07,22.89a1,1,0,0,1-.63-1.73l4.41-3.51L40.47,14.3a1,1,0,0,1,1.2-1.6l5.41,4.13a1,1,0,0,1,.39.79,1,1,0,0,1-.37.79l-5.4,4.33A1,1,0,0,1,41.07,22.89Z"/></g></g></g></g></svg>