<?xml version="1.0" encoding="utf-8"?>
<!-- Generator: Adobe Illustrator 24.0.0, SVG Export Plug-In . SVG Version: 6.00 Build 0)  -->
<svg version="1.1" id="Layer_1" xmlns="http://www.w3.org/2000/svg" xmlns:xlink="http://www.w3.org/1999/xlink" x="0px" y="0px"
	 viewBox="0 0 207.63 17.71" style="enable-background:new 0 0 207.63 17.71;" xml:space="preserve">
<style type="text/css">
	.st0{fill:#323E48;}
</style>
<g>
	<g>
		<g>
			<path class="st0" d="M128.6,6.62c0.11,0,0.3,0.03,0.57,0.1c0.32,0.13,0.48,0.24,0.48,0.34c0,0.09-0.03,0.17-0.08,0.23
				c-0.05,0.08-0.13,0.13-0.23,0.15c-0.51,0.11-1.03,0.22-1.56,0.3c-0.05,0.64-0.08,1.23-0.08,1.79v0.3c0.05,0,0.1,0.01,0.15,0.02
				c0.3,0.09,0.62,0.18,0.95,0.29c0.41,0.17,0.67,0.32,0.8,0.46c0.12,0.13,0.17,0.26,0.17,0.4c0,0.15-0.04,0.31-0.11,0.48
				c-0.08,0.14-0.18,0.21-0.32,0.21c-0.1,0-0.18-0.03-0.23-0.08c-0.14-0.1-0.35-0.29-0.63-0.57c-0.37-0.43-0.63-0.71-0.78-0.84v6.33
				c0,0.23-0.08,0.48-0.23,0.74c-0.09,0.29-0.21,0.44-0.36,0.44c-0.22,0-0.4-0.22-0.55-0.65c-0.13-0.28-0.19-0.61-0.19-0.99
				c0.17-0.86,0.3-1.77,0.42-2.71c0.15-0.79,0.24-2.01,0.25-3.66c-0.48,1.19-0.95,2.1-1.41,2.73c-0.37,0.46-0.8,0.88-1.3,1.28
				c-0.22,0.19-0.41,0.29-0.57,0.29h-0.08c0.6-0.75,1.15-1.61,1.66-2.59c0.48-0.9,0.93-2.06,1.33-3.49
				c-0.47,0.08-0.82,0.11-1.05,0.11c-0.71,0-1.18-0.08-1.41-0.23c-0.15-0.1-0.23-0.17-0.23-0.21c0-0.1,0.05-0.15,0.15-0.15
				c1.17-0.06,2.1-0.17,2.78-0.32c0.04-0.01,0.07-0.02,0.1-0.02c-0.03-1.91-0.08-3.03-0.15-3.37c-0.09-0.44-0.25-0.87-0.5-1.28
				c0-0.15,0.05-0.23,0.15-0.23c0.39,0,0.81,0.14,1.24,0.42c0.41,0.23,0.61,0.49,0.61,0.78c0,0.1-0.04,0.23-0.13,0.38
				c-0.18,1.09-0.31,2.11-0.4,3.05c0.18-0.05,0.34-0.1,0.48-0.15C128.4,6.64,128.5,6.62,128.6,6.62z M137.82,3.64
				c0.27,0,0.55,0.07,0.86,0.21c0.28,0.13,0.42,0.3,0.42,0.53c0,0.14-0.08,0.21-0.23,0.21c-0.84,0-1.64,0.03-2.4,0.1
				c-0.03,0.1-0.04,0.21-0.06,0.32c-0.11,0.57-0.24,1.14-0.36,1.72c0.65-0.1,1.17-0.2,1.56-0.29c0.53-0.09,0.98-0.13,1.33-0.13
				c0.09,0,0.34,0.09,0.76,0.27c0.38,0.23,0.57,0.41,0.57,0.55c0,0.2-0.12,0.31-0.36,0.31c-0.13,0-0.36-0.03-0.71-0.08
				c-0.33-0.05-0.62-0.08-0.86-0.08c-1.11,0-2.19,0.03-3.24,0.1c-0.39,0.04-0.8,0.09-1.22,0.15c0.23,0.03,0.45,0.1,0.67,0.23
				c0.44,0.18,0.67,0.34,0.67,0.5c-0.01,0.09-0.03,0.18-0.04,0.29c-0.05,0.11-0.1,0.31-0.13,0.57c0.72-0.14,1.47-0.3,2.25-0.5
				c0.17,0,0.48,0.12,0.93,0.36c0.57,0.32,0.86,0.55,0.86,0.69c0,0.06-0.05,0.14-0.15,0.23c-0.32,0.36-0.57,0.78-0.76,1.28
				c-0.15,0.58-0.39,1.28-0.72,2.08c-0.06,0.14-0.17,0.26-0.3,0.36c-0.11,0.05-0.21,0.08-0.29,0.08c-0.1,0-0.18-0.06-0.23-0.17
				c-0.04-0.1-0.1-0.18-0.17-0.25c-0.89,0.01-1.77,0.08-2.63,0.21c-0.86,0.14-1.4,0.21-1.6,0.21c-0.03,0-0.05,0-0.08,0
				c-0.01,0.3-0.08,0.46-0.21,0.46c-0.13,0-0.24-0.08-0.32-0.23c-0.09-0.11-0.13-0.22-0.13-0.31c-0.14-0.41-0.26-1.1-0.36-2.08
				c-0.09-0.6-0.21-1.07-0.36-1.43c-0.1-0.3-0.23-0.53-0.38-0.67c0-0.09,0.1-0.13,0.29-0.13c0.18,0,0.39,0.03,0.63,0.1
				c0.15,0.06,0.26,0.13,0.32,0.21c0.7-0.06,1.43-0.16,2.19-0.29c-0.01-0.37-0.03-0.62-0.04-0.74c-0.1-0.23-0.2-0.4-0.29-0.51
				c-0.09-0.15-0.13-0.26-0.13-0.32c0-0.05,0.01-0.1,0.04-0.13c-0.32,0.06-0.64,0.13-0.95,0.19c-0.43,0.13-0.97,0.31-1.62,0.53
				c-0.1,0.03-0.15,0.05-0.15,0.08c-0.14,0-0.37-0.09-0.69-0.27c-0.28-0.18-0.42-0.29-0.42-0.34c0-0.09,0.05-0.13,0.15-0.13
				c0.23-0.03,0.53-0.06,0.9-0.11c0.77-0.1,1.5-0.2,2.17-0.31c-0.01-0.02-0.03-0.04-0.04-0.06c-0.09-0.14-0.13-0.25-0.13-0.34
				c-0.09-0.34-0.17-0.86-0.23-1.56c-0.2,0.05-0.41,0.1-0.61,0.15c-0.28,0.09-0.45,0.13-0.5,0.13c-0.2,0-0.45-0.06-0.74-0.19
				c-0.25-0.1-0.38-0.18-0.38-0.25c0-0.05,0.03-0.08,0.08-0.08c0.75-0.11,1.45-0.22,2.1-0.32c-0.06-0.56-0.15-1-0.25-1.33
				c-0.08-0.3-0.17-0.52-0.29-0.65c0-0.15,0.08-0.23,0.23-0.23c0.2,0,0.45,0.04,0.74,0.11c0.34,0.15,0.51,0.31,0.51,0.48l0.04,1.45
				c0.22-0.04,0.42-0.08,0.61-0.11c0.51-0.1,1.02-0.21,1.54-0.32c0.02-0.38,0.04-0.67,0.04-0.86c0-0.34-0.09-0.74-0.27-1.2
				c-0.06-0.11-0.09-0.21-0.09-0.29c0-0.1,0.15-0.15,0.44-0.15c0.32,0,0.6,0.09,0.86,0.27c0.42,0.24,0.63,0.48,0.63,0.71l-0.11,0.11
				c-0.08,0.14-0.13,0.32-0.15,0.53c-0.05,0.19-0.1,0.39-0.15,0.59c0.14-0.04,0.28-0.08,0.42-0.11
				C137.35,3.67,137.6,3.64,137.82,3.64z M132.55,14.5c0.1,0,0.36,0.06,0.76,0.19c0.38,0.17,0.57,0.35,0.57,0.55
				c0,0.05-0.04,0.1-0.13,0.15c-0.23,0.13-0.48,0.32-0.76,0.57c-0.57,0.46-1.1,0.82-1.58,1.09c-0.27,0.14-0.61,0.28-1.03,0.42
				c-0.13,0.05-0.22,0.08-0.29,0.08c-0.05,0-0.08-0.03-0.08-0.08c0.43-0.33,0.83-0.69,1.2-1.07c0.5-0.48,0.84-0.92,1.05-1.31
				c0.09-0.1,0.13-0.27,0.13-0.51C132.39,14.53,132.44,14.5,132.55,14.5z M132.13,13.23c0.42-0.01,0.98-0.08,1.7-0.21
				c0-0.5,0.01-0.95,0.02-1.37c-0.15,0.03-0.26,0.04-0.32,0.04c-0.32,0-0.6-0.04-0.84-0.11c-0.19-0.06-0.29-0.13-0.29-0.19
				c0-0.08,0.05-0.13,0.15-0.15c0.44-0.05,0.88-0.12,1.29-0.21c0-0.48,0-0.9,0-1.24c-0.85,0.1-1.55,0.17-2.1,0.19L132.13,13.23z
				 M133.33,7.17c0.69-0.1,1.3-0.2,1.85-0.29c0.1-0.85,0.18-1.55,0.23-2.1c-0.48,0.05-0.96,0.11-1.43,0.19
				c-0.22,0.03-0.43,0.06-0.65,0.1l0.04,1.77C133.37,6.97,133.35,7.08,133.33,7.17z M134.72,12.88c0.46-0.08,0.84-0.16,1.16-0.25
				c0.13-0.04,0.25-0.06,0.38-0.06c0.19,0,0.35,0.04,0.48,0.13c0.2-0.57,0.36-1.14,0.46-1.71c0.08-0.44,0.11-0.84,0.11-1.18
				c0-0.34-0.08-0.51-0.23-0.51c-0.76,0.13-1.46,0.24-2.1,0.32c-0.04,0.33-0.08,0.72-0.11,1.18c0.08-0.01,0.15-0.02,0.23-0.04
				c0.15-0.04,0.27-0.06,0.34-0.06c0.65,0,0.97,0.12,0.97,0.36c0,0.09-0.06,0.14-0.17,0.15c-0.5,0.11-0.97,0.21-1.43,0.29
				C134.79,11.93,134.76,12.39,134.72,12.88z M135.31,14.43c0.11,0,0.31,0.03,0.59,0.08c0.5,0.18,1.01,0.38,1.54,0.61
				c0.65,0.34,1.08,0.65,1.3,0.93c0.19,0.25,0.29,0.53,0.29,0.84c0,0.18-0.05,0.37-0.15,0.57c-0.09,0.17-0.21,0.25-0.36,0.25
				s-0.25-0.03-0.3-0.08c-0.25-0.17-0.62-0.5-1.11-1.01c-0.7-0.86-1.17-1.4-1.43-1.6c-0.29-0.24-0.44-0.41-0.44-0.51
				C135.23,14.45,135.26,14.43,135.31,14.43z"/>
			<path class="st0" d="M145.86,9.15c0.05,0.01,0.08,0.06,0.08,0.15c0,0.11-0.08,0.34-0.23,0.69c-0.83,2.1-1.33,3.44-1.52,4.02
				c-0.1,0.33-0.2,0.69-0.29,1.07c-0.14,0.61-0.3,0.92-0.5,0.92c-0.18,0-0.39-0.22-0.65-0.67c-0.27-0.58-0.4-0.98-0.4-1.18
				c0-0.15,0.05-0.25,0.15-0.3c0.38-0.28,0.67-0.55,0.86-0.82c0.42-0.52,1.23-1.79,2.42-3.79C145.8,9.19,145.82,9.16,145.86,9.15z
				 M142.66,6.62c0.17,0,0.36,0.03,0.59,0.1c0.56,0.15,0.98,0.33,1.28,0.53c0.24,0.2,0.36,0.49,0.36,0.86
				c0,0.18-0.06,0.35-0.19,0.51c-0.14,0.15-0.27,0.23-0.4,0.23c-0.15,0-0.3-0.08-0.46-0.23c-0.29-0.27-0.7-0.82-1.22-1.66
				c-0.08-0.09-0.11-0.15-0.11-0.19C142.52,6.67,142.57,6.62,142.66,6.62z M144.14,2.9c0.19,0,0.42,0.03,0.69,0.08
				c0.62,0.15,1.1,0.34,1.43,0.55c0.28,0.19,0.42,0.48,0.42,0.86c0,0.17-0.06,0.34-0.19,0.51c-0.14,0.15-0.28,0.23-0.42,0.23
				c-0.17,0-0.34-0.08-0.51-0.25c-0.34-0.25-0.82-0.81-1.43-1.66c-0.09-0.09-0.13-0.15-0.13-0.19C144.02,2.94,144.07,2.9,144.14,2.9
				z M153.29,2.44c0.16,0,0.46,0.13,0.9,0.38c0.41,0.28,0.61,0.53,0.61,0.74c0,0.27-0.11,0.43-0.34,0.48
				c-0.42,0.06-0.79,0.17-1.12,0.3c-1.69,0.76-2.99,1.17-3.91,1.22c0,0.11,0,0.24,0,0.36c-0.09,0.32-0.14,1.03-0.15,2.13
				c1.36-0.22,2.57-0.46,3.64-0.72c0.8-0.19,1.35-0.29,1.66-0.29c0.7,0.03,1.05,0.2,1.05,0.53c0,0.27-0.31,0.42-0.93,0.46
				c-0.44,0.04-0.98,0.09-1.6,0.15c0.44,0.18,0.67,0.34,0.67,0.5c-0.03,0.06-0.04,0.12-0.06,0.17c-0.15,0.22-0.41,0.95-0.78,2.21
				c0.74-0.09,1.41-0.18,2.02-0.29c0.63-0.1,1.23-0.15,1.79-0.15c0.3,0,0.65,0.05,1.03,0.15c0.46,0.19,0.69,0.36,0.69,0.51
				c0,0.08-0.06,0.17-0.17,0.29c-0.1,0.11-0.22,0.17-0.34,0.17c-2.86,0-5.22,0.06-7.09,0.17c-1.14,0.06-2.55,0.22-4.23,0.46
				c-0.06,0.03-0.14,0.04-0.23,0.04c-0.15,0-0.38-0.08-0.69-0.25c-0.24-0.14-0.36-0.23-0.36-0.29s0.05-0.08,0.15-0.08
				c1.14-0.13,2.08-0.22,2.82-0.27c0.05-0.01,0.1-0.02,0.15-0.02c-0.1-3.15-0.21-4.97-0.32-5.47c-0.13-0.27-0.25-0.47-0.38-0.61
				c-0.11-0.18-0.17-0.31-0.17-0.4c0-0.15,0.09-0.23,0.29-0.23c0.32,0,0.62,0.08,0.92,0.25c0.13,0.05,0.23,0.1,0.3,0.15
				c0.33-0.1,0.66-0.24,0.99-0.4c0.95-0.39,1.72-0.83,2.31-1.31c0.37-0.28,0.63-0.61,0.78-0.99C153.18,2.47,153.23,2.44,153.29,2.44
				z M149.14,12.71c0.09,0,0.34,0.07,0.74,0.21c0.39,0.15,0.59,0.33,0.59,0.53c0,0.09-0.06,0.17-0.17,0.23
				c-0.28,0.18-0.6,0.46-0.95,0.86c-0.7,0.69-1.35,1.22-1.94,1.6c-0.34,0.22-0.77,0.43-1.28,0.63c-0.15,0.08-0.27,0.11-0.34,0.11
				c-0.05,0-0.08-0.03-0.08-0.08c0.58-0.46,1.13-0.95,1.64-1.49c0.69-0.67,1.17-1.28,1.45-1.83c0.13-0.13,0.19-0.36,0.19-0.71
				C148.99,12.74,149.04,12.71,149.14,12.71z M149.35,11.45c0.48-0.04,1.02-0.09,1.62-0.15c0.33-0.03,0.65-0.06,0.95-0.1
				c0.14-1.42,0.2-2.25,0.17-2.5c-0.04-0.14-0.08-0.25-0.13-0.32c-0.01-0.03-0.03-0.04-0.04-0.06h-0.02
				c-0.74,0.1-1.41,0.15-2.02,0.15c-0.25,0-0.46-0.01-0.61-0.04C149.28,9.27,149.31,10.27,149.35,11.45z M152.47,13.17
				c0.13,0,0.32,0.03,0.59,0.08c0.5,0.23,1,0.48,1.51,0.76c0.65,0.43,1.08,0.83,1.3,1.18c0.18,0.3,0.27,0.65,0.27,1.03
				c0,0.18-0.05,0.37-0.15,0.57c-0.09,0.17-0.21,0.25-0.36,0.25s-0.25-0.03-0.3-0.08c-0.24-0.2-0.6-0.6-1.09-1.2
				c-0.67-1.03-1.13-1.66-1.37-1.91c-0.29-0.29-0.44-0.5-0.44-0.61C152.41,13.2,152.43,13.17,152.47,13.17z"/>
			<path class="st0" d="M159.52,6.92c0.17,0,0.37,0.02,0.61,0.06c0.56,0.13,0.98,0.27,1.26,0.44c0.24,0.17,0.36,0.39,0.36,0.69
				c0,0.18-0.06,0.35-0.17,0.51c-0.14,0.15-0.28,0.23-0.42,0.23c-0.15,0-0.3-0.07-0.44-0.21c-0.3-0.22-0.72-0.69-1.24-1.41
				c-0.08-0.08-0.11-0.13-0.11-0.17C159.39,6.96,159.44,6.92,159.52,6.92z M162.41,9.89c0.05,0.01,0.08,0.06,0.08,0.15
				c0,0.1-0.05,0.31-0.15,0.63c-0.64,1.92-1.02,3.14-1.16,3.66c-0.09,0.31-0.17,0.63-0.23,0.97c-0.11,0.56-0.24,0.84-0.38,0.84
				c-0.18,0-0.39-0.23-0.65-0.69c-0.27-0.57-0.4-0.97-0.4-1.18c0-0.14,0.05-0.23,0.15-0.29c0.32-0.24,0.55-0.48,0.71-0.71
				c0.34-0.47,1-1.58,1.98-3.32C162.37,9.93,162.39,9.91,162.41,9.89z M160.93,3.34c0.18,0,0.39,0.03,0.63,0.08
				c0.57,0.14,1.01,0.31,1.31,0.5c0.24,0.18,0.36,0.43,0.36,0.76c0,0.18-0.06,0.35-0.17,0.51c-0.14,0.15-0.28,0.23-0.42,0.23
				c-0.15,0-0.3-0.07-0.46-0.21c-0.32-0.24-0.74-0.76-1.28-1.54c-0.08-0.08-0.11-0.13-0.11-0.17
				C160.81,3.39,160.85,3.34,160.93,3.34z M171.27,4c0.11,0,0.3,0.03,0.57,0.1c0.32,0.14,0.48,0.26,0.48,0.36
				c0,0.08-0.02,0.15-0.06,0.21c-0.06,0.09-0.15,0.14-0.25,0.15c-0.61,0.11-1.23,0.22-1.87,0.32c-0.13,0.72-0.28,1.45-0.46,2.17
				c0.71-0.11,1.43-0.25,2.15-0.4c0.36-0.05,0.69-0.08,0.99-0.08c0.27,0,0.55,0.07,0.86,0.21c0.28,0.13,0.42,0.31,0.42,0.53
				c0,0.14-0.08,0.21-0.23,0.21c-1.46,0-2.85,0.05-4.17,0.15c0.2,0.11,0.39,0.27,0.57,0.48c0.72,0.77,1.44,1.4,2.13,1.89
				c0.72,0.56,1.93,1.16,3.62,1.81v0.08c0,0.06-0.1,0.11-0.3,0.13c-0.98,0.17-1.84,0.25-2.59,0.25c-0.28,0-0.46-0.04-0.53-0.13
				c-0.65-0.62-1.46-1.66-2.42-3.11c-0.18-0.25-0.41-0.54-0.71-0.86c-0.2-0.22-0.39-0.37-0.55-0.48c-0.53,0.05-1.05,0.11-1.56,0.17
				c-0.22,0.01-0.43,0.03-0.65,0.06c0.04,0.03,0.07,0.05,0.09,0.08c0.25,0.11,0.38,0.27,0.38,0.46c0,0.04-0.04,0.07-0.11,0.1
				c-0.05,0.09-0.12,0.22-0.21,0.38c-0.44,0.78-0.93,1.47-1.47,2.1c-0.53,0.67-1.1,1.23-1.71,1.66c-0.5,0.37-0.98,0.65-1.45,0.84
				c-0.19,0.1-0.3,0.15-0.34,0.15v-0.08c0.75-0.67,1.41-1.35,1.98-2.02c0.39-0.44,0.77-0.94,1.13-1.49
				c0.32-0.48,0.56-0.96,0.72-1.43c0.08-0.19,0.11-0.33,0.11-0.42c-0.04-0.06-0.06-0.12-0.08-0.17c-0.43,0.08-0.88,0.16-1.33,0.25
				c-0.37,0.09-0.59,0.13-0.67,0.13c-0.2,0-0.45-0.06-0.74-0.19c-0.25-0.1-0.38-0.18-0.38-0.25c0-0.05,0.03-0.08,0.08-0.08
				c1.21-0.14,2.32-0.27,3.33-0.4c-0.05-0.85-0.1-1.59-0.13-2.21c-0.71,0-1.17-0.08-1.39-0.23c-0.17-0.1-0.25-0.17-0.25-0.21
				c0-0.1,0.05-0.15,0.15-0.15c0.51-0.02,0.98-0.05,1.43-0.08c-0.08-0.85-0.14-1.39-0.19-1.62c-0.11-0.23-0.22-0.4-0.32-0.51
				c-0.1-0.14-0.16-0.25-0.17-0.32c0-0.15,0.1-0.23,0.31-0.23c0.3,0,0.6,0.09,0.9,0.27c0.44,0.17,0.67,0.32,0.67,0.48
				c-0.01,0.1-0.02,0.2-0.02,0.3c-0.06,0.24-0.1,0.76-0.11,1.54c0.7-0.06,1.3-0.15,1.81-0.25c0.19-0.04,0.37-0.08,0.55-0.11
				c0.1-0.76,0.15-1.3,0.15-1.62c0-0.36-0.1-0.76-0.29-1.22c-0.06-0.11-0.09-0.21-0.09-0.29c0-0.09,0.15-0.13,0.46-0.13
				s0.58,0.08,0.84,0.25c0.43,0.25,0.65,0.49,0.65,0.71l-0.15,0.15c-0.09,0.17-0.15,0.37-0.19,0.61c-0.11,0.41-0.22,0.83-0.31,1.28
				c0.18-0.05,0.35-0.1,0.51-0.15C170.98,4.04,171.12,4,171.27,4z M169.27,10.33c0.13,0,0.39,0.09,0.78,0.27
				c0.47,0.25,0.71,0.44,0.71,0.55c0,0.09-0.03,0.16-0.08,0.21c-0.45,0.44-0.71,0.79-0.8,1.03c-0.11,0.24-0.2,0.47-0.27,0.69
				c0.11,0.04,0.21,0.09,0.29,0.15c0.23,0.22,0.34,0.37,0.34,0.46c-0.03,0.04-0.07,0.06-0.13,0.06c-0.71,0-1.42,0.04-2.12,0.13
				c-0.6,0.08-0.96,0.11-1.1,0.11c-0.08,0-0.15-0.01-0.21-0.04c-0.01,0.06-0.02,0.13-0.02,0.19c0,0.79,0.13,1.35,0.38,1.68
				c0.33,0.47,1.04,0.71,2.12,0.71c0.39,0,0.75-0.05,1.07-0.15c0.31-0.08,0.57-0.19,0.8-0.34c0.24-0.15,0.41-0.38,0.51-0.69
				c0.13-0.25,0.23-0.67,0.3-1.24c0.04-0.23,0.1-0.34,0.17-0.34c0.09,0,0.15,0.11,0.19,0.32c0.1,0.53,0.3,1.06,0.61,1.58
				c0.17,0.27,0.25,0.45,0.25,0.55c0,0.13-0.09,0.26-0.27,0.4c-0.36,0.28-0.81,0.48-1.37,0.61c-0.58,0.16-1.29,0.25-2.12,0.25
				c-1.27,0-2.1-0.15-2.48-0.46c-0.37-0.29-0.62-0.64-0.74-1.05c-0.11-0.42-0.17-1.03-0.17-1.83v-0.38c0-0.36-0.1-0.73-0.3-1.12
				c0-0.04,0.05-0.06,0.15-0.06c0.18,0,0.43,0.11,0.74,0.32c0.28,0.17,0.43,0.34,0.46,0.51c0.22-0.01,0.47-0.05,0.76-0.11
				c0.44-0.05,0.81-0.11,1.11-0.19c0.14-0.79,0.21-1.34,0.21-1.66c0-0.1-0.05-0.15-0.15-0.15c-0.14,0-0.41,0.03-0.8,0.1
				c-0.47,0.09-0.87,0.13-1.2,0.13c-0.1,0-0.25-0.04-0.44-0.13c-0.2-0.11-0.3-0.2-0.3-0.25s0.02-0.08,0.08-0.08
				c0.47-0.03,0.9-0.08,1.28-0.15c0.44-0.06,0.86-0.2,1.24-0.4C168.97,10.39,169.15,10.33,169.27,10.33z M166.95,7.74
				c0.24-0.04,0.48-0.07,0.71-0.1c0.39-0.06,0.79-0.13,1.18-0.19c0.13-0.83,0.23-1.54,0.32-2.15c-0.37,0.05-0.74,0.1-1.13,0.13
				c-0.42,0.06-0.79,0.11-1.12,0.15C166.91,6.2,166.92,6.91,166.95,7.74z"/>
			<path class="st0" d="M187.07,4.08c0.13,0,0.34,0.04,0.65,0.11c0.36,0.15,0.53,0.29,0.53,0.4c0,0.1-0.03,0.19-0.08,0.27
				c-0.08,0.1-0.17,0.17-0.29,0.19c-1.05,0.19-2.15,0.36-3.3,0.5c-0.22,0.8-0.46,1.6-0.72,2.4c1.12-0.13,2.36-0.26,3.73-0.4
				c0.56-0.04,1.25-0.17,2.08-0.38c0.05-0.02,0.15-0.04,0.29-0.04c0.13,0,0.46,0.15,1.01,0.46c0.62,0.34,0.93,0.57,0.93,0.67
				c0,0.06-0.03,0.14-0.08,0.23c-0.34,0.71-0.55,1.32-0.61,1.83c-0.05,2.79-0.12,4.47-0.21,5.03c-0.1,0.56-0.34,1.05-0.71,1.47
				c-0.43,0.55-0.72,0.82-0.86,0.82c-0.29,0-0.49-0.08-0.59-0.25c-0.46-0.61-0.96-1.27-1.5-1.98l-0.21-0.23
				c0-0.05,0.02-0.08,0.06-0.08c1.14,0.31,1.87,0.46,2.17,0.46c0.1,0,0.19-0.17,0.27-0.5c0.15-0.46,0.27-1.45,0.36-2.97
				c0.03-0.74,0.04-1.54,0.04-2.4c0-0.61-0.04-1.01-0.13-1.2c-0.19-0.25-0.47-0.38-0.84-0.38c-0.97,0-1.92,0.04-2.86,0.13
				c-0.08,0-0.15,0.01-0.21,0.02c0.05,0.03,0.1,0.05,0.15,0.08c0.25,0.13,0.38,0.27,0.38,0.44c0,0.05-0.05,0.13-0.15,0.25
				c-0.2,0.25-0.36,0.44-0.46,0.55c-0.25,0.34-0.57,0.7-0.95,1.07c0.41-0.09,0.77-0.19,1.09-0.3c0.1-0.05,0.21-0.08,0.32-0.08
				c0.09,0,0.24,0.03,0.46,0.1c0.24,0.1,0.36,0.2,0.36,0.29c0,0.06-0.01,0.12-0.04,0.17c-0.04,0.06-0.09,0.11-0.17,0.13
				c-0.85,0.18-1.74,0.33-2.67,0.46c0.38,0.18,0.57,0.34,0.57,0.5c0,0.11-0.01,0.24-0.02,0.38c-0.03,0.06-0.05,0.15-0.08,0.27
				c0.47-0.09,0.95-0.18,1.43-0.29c0.22-0.04,0.42-0.06,0.61-0.06c0.27,0,0.55,0.07,0.86,0.21c0.27,0.13,0.4,0.3,0.4,0.53
				c0,0.15-0.07,0.23-0.21,0.23c-1.11,0-2.15,0.04-3.13,0.11c0,0.08,0,0.16,0,0.25c0,1.03-0.03,1.7-0.1,2
				c-0.04,0.32-0.13,0.57-0.27,0.76c-0.17,0.2-0.32,0.31-0.46,0.31c-0.09,0-0.15-0.12-0.17-0.36c-0.04-0.06-0.06-1.02-0.06-2.86
				c-0.52,0.05-1.08,0.13-1.68,0.23c-0.23,0.05-0.37,0.08-0.42,0.08c-0.19,0-0.44-0.06-0.74-0.19c-0.24-0.1-0.36-0.18-0.36-0.25
				c0-0.05,0.03-0.08,0.08-0.08c1.16-0.15,2.17-0.29,3.05-0.42c0.03-0.01,0.05-0.02,0.08-0.02c-0.04-0.48-0.15-0.88-0.34-1.2
				c-0.39,0.05-0.71,0.08-0.93,0.08c-0.58,0-0.97-0.08-1.14-0.25c-0.13-0.1-0.19-0.17-0.19-0.21c0-0.05,0.03-0.08,0.08-0.08
				c1.28-0.06,2.31-0.16,3.09-0.29c0.32-0.46,0.57-0.91,0.74-1.35c0.13-0.28,0.19-0.5,0.19-0.67c0-0.06-0.06-0.2-0.17-0.42
				c-2.16,0.22-3.85,0.43-5.07,0.65c-0.15,0.05-0.29,0.08-0.42,0.08c-0.06,0-0.13-0.01-0.21-0.02l0.29,6.19
				c0,0.19-0.04,0.35-0.13,0.48c-0.06,0.18-0.17,0.27-0.32,0.27c-0.08,0-0.21-0.14-0.4-0.42c-0.13-0.22-0.19-0.35-0.19-0.4
				l0.08-0.82c-0.04-2.97-0.24-4.76-0.61-5.37c-0.14-0.28-0.21-0.47-0.21-0.57c0-0.2,0.13-0.3,0.38-0.3c0.14,0,0.35,0.04,0.63,0.13
				c0.19,0.06,0.32,0.15,0.4,0.25c0.05,0,0.1,0,0.15,0c0.25,0,0.51-0.03,0.78-0.1c0.79-0.1,1.71-0.22,2.76-0.34
				c0.25-0.9,0.46-1.7,0.63-2.38c-0.37,0.04-0.67,0.06-0.9,0.06c-0.81,0-1.34-0.11-1.58-0.32c-0.19-0.13-0.29-0.22-0.29-0.27
				c0-0.05,0.05-0.08,0.15-0.08c1.09-0.05,2.03-0.13,2.82-0.23c0.2-0.95,0.3-1.62,0.3-2c0-0.38-0.09-0.83-0.27-1.33
				c-0.06-0.13-0.09-0.23-0.09-0.3c0-0.15,0.15-0.23,0.44-0.23c0.38,0,0.72,0.1,1.03,0.3c0.51,0.28,0.76,0.55,0.76,0.82l-0.23,0.15
				c-0.15,0.19-0.25,0.43-0.3,0.72c-0.2,0.52-0.39,1.09-0.57,1.7c0.69-0.14,1.3-0.3,1.85-0.48C186.79,4.11,186.92,4.08,187.07,4.08z
				 M181.85,9.15c0.11,0,0.25,0.01,0.4,0.04c0.37,0.08,0.65,0.17,0.86,0.27c0.15,0.1,0.23,0.25,0.23,0.44
				c0,0.17-0.06,0.34-0.17,0.51c-0.14,0.15-0.28,0.23-0.42,0.23c-0.09,0-0.18-0.05-0.27-0.15c-0.17-0.17-0.4-0.52-0.71-1.07
				c-0.05-0.06-0.08-0.1-0.08-0.11C181.72,9.2,181.77,9.15,181.85,9.15z"/>
			<path class="st0" d="M200.93,1.39c0.34,0,0.71,0.15,1.11,0.44c0.41,0.28,0.61,0.58,0.61,0.91c0,0.09-0.11,0.19-0.34,0.31
				c-1.14,0.89-2.67,2.36-4.59,4.4c-0.2,0.23-0.4,0.47-0.59,0.72l8.21-0.95c-0.52-0.74-0.89-1.21-1.11-1.41
				c-0.3-0.29-0.46-0.5-0.46-0.61c0-0.05,0.03-0.08,0.08-0.08c0.13,0,0.33,0.03,0.61,0.08c0.51,0.23,1.03,0.48,1.56,0.76
				c0.67,0.43,1.12,0.83,1.33,1.18c0.19,0.31,0.29,0.65,0.29,1.03c0,0.18-0.04,0.37-0.13,0.57C207.4,8.91,207.27,9,207.12,9
				c-0.14,0-0.24-0.03-0.3-0.08c-0.25-0.2-0.63-0.6-1.12-1.2c-0.01-0.03-0.03-0.04-0.04-0.04c-4.6,0.55-7.81,1.28-9.62,2.21
				c-0.3,0-0.55-0.16-0.72-0.48c-0.17-0.19-0.25-0.46-0.25-0.8c0-0.14,0.05-0.26,0.15-0.36c0.9-0.37,1.9-1.12,2.99-2.27
				c0.53-0.58,1.21-1.55,2.04-2.9c0.27-0.5,0.4-0.79,0.4-0.88c-0.05-0.14-0.08-0.29-0.08-0.44C200.56,1.52,200.69,1.39,200.93,1.39z
				 M196.91,11.53c0.24,0,0.53,0.04,0.86,0.13c0.1,0.05,0.19,0.1,0.27,0.13c1.11-0.05,2.1-0.16,2.97-0.32
				c0.74-0.13,1.48-0.31,2.23-0.55c0.23-0.09,0.46-0.13,0.69-0.13c0.29,0,0.76,0.16,1.41,0.48c0.79,0.44,1.18,0.78,1.18,1.01
				c0,0.08-0.07,0.15-0.21,0.23c-0.36,0.23-0.62,0.51-0.8,0.84c-0.38,0.46-0.66,1.11-0.84,1.94c0.1,0.04,0.19,0.09,0.27,0.15
				c0.27,0.27,0.4,0.45,0.4,0.55c-0.05,0.05-0.13,0.08-0.23,0.08c-1.38,0-2.76,0.06-4.14,0.19c-1,0.11-1.67,0.17-2,0.17l0.04,0.23
				c-0.03,0.46-0.15,0.69-0.38,0.69c-0.14,0-0.26-0.1-0.36-0.29c-0.1-0.17-0.15-0.3-0.15-0.4c-0.2-0.48-0.37-1.3-0.5-2.46
				c-0.11-0.7-0.27-1.25-0.48-1.66c-0.13-0.37-0.3-0.63-0.51-0.78C196.62,11.61,196.72,11.53,196.91,11.53z M198.87,15.76
				c0.53-0.02,1.23-0.09,2.1-0.19c0.95-0.09,1.75-0.18,2.38-0.29c0.14-0.32,0.27-0.81,0.38-1.49c0.13-0.53,0.19-0.97,0.19-1.3
				c0-0.46-0.2-0.69-0.61-0.69c-0.39,0-1.23,0.1-2.5,0.29c-1.21,0.18-2.02,0.3-2.44,0.36L198.87,15.76z"/>
		</g>
	</g>
	<g>
		<g>
			<path class="st0" d="M21.48,9.98c-0.29,0.28-0.68,0.44-1.12,0.44c-0.45,0-0.83-0.16-1.12-0.44c-0.29-0.29-0.45-0.67-0.45-1.12
				c0-0.44,0.15-0.81,0.45-1.13c0.3-0.31,0.68-0.45,1.12-0.45c0.44,0,0.83,0.14,1.12,0.45c0.3,0.33,0.45,0.69,0.45,1.13
				C21.92,9.31,21.78,9.7,21.48,9.98z"/>
			<path class="st0" d="M37.82,1.49c-0.4-0.38-0.87-0.57-1.44-0.57c-0.51,0-0.93,0.17-1.27,0.53c-0.36,0.35-0.53,0.78-0.53,1.29
				c0,0.58,0.21,1.04,0.61,1.44c0.4,0.41,0.87,0.61,1.42,0.61c0.53,0,0.95-0.21,1.29-0.57c0.34-0.35,0.51-0.77,0.51-1.28
				C38.42,2.36,38.23,1.89,37.82,1.49z M37.31,3.66c-0.19,0.23-0.44,0.33-0.76,0.33c-0.32,0-0.59-0.12-0.83-0.37
				c-0.23-0.22-0.34-0.53-0.34-0.84c0-0.31,0.11-0.57,0.3-0.76c0.19-0.2,0.44-0.3,0.76-0.3c0.32,0,0.59,0.11,0.83,0.34
				c0.23,0.23,0.34,0.51,0.34,0.85C37.61,3.2,37.5,3.47,37.31,3.66z"/>
			<g>
				<path class="st0" d="M76.18,6.06L76.18,6.06c-0.05,0-0.08,0.01-0.11,0.03C76,6.15,76.02,6.23,76.04,6.34
					c0.03,0.13,0.06,0.36-0.02,0.65c-0.15,0.6-0.44,1.08-0.72,1.5l-0.55,0.75c-0.47,0.62-0.9,1.13-1.4,1.65
					C72.27,12,71.4,12.65,70.94,13L70.93,13c-0.32,0.24-0.42,0.37-0.35,0.45c0.02,0.03,0.06,0.04,0.13,0.04h0
					c0.08,0,0.18-0.02,0.25-0.03c0.31-0.07,0.72-0.21,1.02-0.35c0.68-0.33,1.22-0.68,1.81-1.12c0.93-0.69,1.76-1.43,2.44-2.23
					l0.07-0.08c0.31-0.37,0.6-0.71,0.84-1.05c0.41-0.56,0.5-0.85,0.51-0.98c0-0.31-0.27-0.77-0.66-1.14
					C76.55,6.1,76.28,6.06,76.18,6.06z"/>
				<path class="st0" d="M86.34,11.9c-0.11-0.43-0.29-0.86-0.59-1.37c-0.29-0.5-0.64-1-1.03-1.48c-0.54-0.61-1.02-1.11-1.4-1.43
					c-1.05-0.97-2.43-1.75-2.82-1.96c-0.62-0.33-0.95-0.42-1.08-0.3c-0.05,0.04-0.06,0.08-0.06,0.11c0,0.1,0.11,0.21,0.27,0.32
					l0.07,0.06c0.01,0.01,0.64,0.48,0.89,0.68c0.68,0.62,1.34,1.34,1.99,2.26c0.33,0.45,0.67,1.04,1.09,1.85
					c0.15,0.33,0.3,0.64,0.45,0.95l0.12,0.24c0.13,0.27,0.26,0.54,0.39,0.81c0.25,0.48,0.51,0.72,0.81,0.76
					c0.06,0.01,0.13,0.02,0.18,0.02c0.35,0,0.6-0.17,0.75-0.54C86.47,12.64,86.42,12.21,86.34,11.9z"/>
			</g>
			<g>
				<path class="st0" d="M29.13,6.06L29.13,6.06c-0.05,0-0.08,0.01-0.11,0.03c-0.06,0.07-0.05,0.14-0.03,0.25
					c0.03,0.13,0.07,0.36-0.01,0.65c-0.15,0.6-0.44,1.08-0.72,1.5L27.7,9.23c-0.47,0.62-0.9,1.13-1.4,1.65
					C25.21,12,24.35,12.65,23.89,13L23.87,13c-0.32,0.24-0.42,0.37-0.35,0.45c0.02,0.03,0.06,0.04,0.13,0.04l0,0
					c0.08,0,0.18-0.02,0.26-0.03c0.31-0.07,0.72-0.21,1.02-0.35c0.69-0.33,1.23-0.68,1.81-1.12c0.94-0.69,1.76-1.43,2.44-2.23
					l0.07-0.08c0.31-0.37,0.59-0.71,0.84-1.05c0.41-0.56,0.5-0.85,0.51-0.98c0-0.31-0.28-0.77-0.66-1.14
					C29.49,6.1,29.23,6.06,29.13,6.06z"/>
				<path class="st0" d="M39.28,11.9c-0.1-0.43-0.29-0.86-0.58-1.37c-0.29-0.5-0.64-1-1.03-1.48c-0.54-0.61-1.02-1.11-1.4-1.43
					c-1.05-0.97-2.42-1.75-2.82-1.96c-0.61-0.33-0.94-0.42-1.08-0.3c-0.04,0.04-0.05,0.08-0.05,0.11c0.01,0.1,0.11,0.21,0.26,0.32
					l0.07,0.06c0.01,0.01,0.64,0.48,0.89,0.68c0.68,0.62,1.34,1.34,1.99,2.26c0.33,0.45,0.68,1.04,1.1,1.85
					c0.15,0.33,0.3,0.64,0.45,0.95l0.11,0.24c0.13,0.27,0.26,0.54,0.4,0.81c0.25,0.48,0.51,0.72,0.8,0.76
					c0.06,0.01,0.13,0.02,0.18,0.02c0.35,0,0.6-0.17,0.74-0.54C39.41,12.64,39.36,12.21,39.28,11.9z"/>
			</g>
			<path class="st0" d="M15.39,3.3c-0.06,0.11-0.15,0.17-0.24,0.19c-0.21,0.06-0.38,0.02-0.53-0.08c-0.21-0.28-0.53-0.71-0.93-1.24
				c-0.15-0.18-0.3-0.34-0.45-0.45c-0.32-0.27-0.44-0.44-0.4-0.51c0.04-0.04,0.26-0.02,0.64,0.08c0.35,0.11,0.73,0.26,1.1,0.44
				c0.62,0.3,0.93,0.69,0.91,1.16C15.49,3.07,15.45,3.19,15.39,3.3z M17.19,2.04c-0.07,0.1-0.15,0.16-0.23,0.18
				c-0.21,0.06-0.38,0.04-0.53-0.06c-0.21-0.27-0.53-0.67-0.97-1.2c-0.11-0.13-0.25-0.27-0.44-0.45c-0.32-0.27-0.45-0.42-0.43-0.48
				C14.62-0.02,14.84,0,15.2,0.11c0.42,0.11,0.8,0.23,1.15,0.38c0.61,0.27,0.93,0.66,0.93,1.15C17.27,1.8,17.25,1.93,17.19,2.04z"/>
			<path class="st0" d="M10.35,1.43c0.49,0.21,0.76,0.42,0.83,0.62c0.02,0.08,0.02,0.2-0.02,0.36c-0.07,0.23-0.11,0.42-0.13,0.6
				c-0.05,0.64-0.07,1.07-0.07,1.27c0,0.21,0,0.33,0,0.7c0,0.41,0,0.69,0,0.83c0.36-0.02,0.87-0.04,1.53-0.08
				c0.49-0.07,0.97-0.17,1.42-0.29c0.36-0.1,0.61-0.14,0.76-0.12c0.24,0.04,0.49,0.18,0.75,0.44c0.25,0.26,0.4,0.53,0.42,0.75
				c0.02,0.22-0.02,0.37-0.15,0.43c-0.15,0.08-0.46,0.1-0.95,0.06c-0.32-0.02-0.76-0.06-1.38-0.08c-0.27-0.02-0.69-0.02-1.24,0
				l-1.13,0.02c0,0.45,0,1.12-0.02,1.93c-0.06,0.93-0.19,1.73-0.4,2.36c-0.31,1.04-0.86,2.02-1.83,2.97
				c-0.43,0.42-0.98,0.85-1.65,1.28c-0.6,0.37-1.12,0.65-1.58,0.82c-0.33,0.11-0.49,0.12-0.53,0.03c-0.04-0.09,0.05-0.23,0.3-0.41
				c0.24-0.18,0.61-0.4,1.08-0.79c1.53-1.26,2.17-2.13,2.68-3.49c0.37-0.95,0.55-2.09,0.57-3.47c0-0.44,0-0.85-0.02-1.22
				C8.12,7.02,6.87,7.11,6.04,7.15c0.02,0.22,0.04,0.67,0.06,1.33L6.15,9.7c0,0.43-0.02,0.75-0.08,0.95
				c-0.11,0.33-0.27,0.49-0.51,0.51c-0.32,0.02-0.59-0.2-0.78-0.69C4.6,10.04,4.54,9.66,4.6,9.33c0.08-0.37,0.13-1.07,0.1-2.07
				c-0.4,0.04-0.98,0.1-1.89,0.18C2.54,7.52,2.07,7.59,1.44,7.67c-0.18,0-0.34-0.04-0.55-0.13C0.72,7.45,0.51,7.31,0.35,7.13
				C0.13,6.82,0,6.57,0,6.41c0-0.04,0-0.08,0.02-0.1c0.02-0.02,0.33-0.02,0.87,0.02c0.29,0.02,0.74,0,1.36-0.04
				c0.87-0.06,1.62-0.1,2.41-0.12c-0.02-0.42-0.04-1.12-0.1-2.05c-0.04-0.4-0.1-0.75-0.19-1.07C4.33,2.91,4.33,2.71,4.2,2.49
				c-0.1-0.18-0.12-0.28-0.1-0.33c0.1-0.14,0.28-0.12,0.73,0.06c0.44,0.2,0.71,0.38,0.87,0.55C5.82,2.95,5.88,3.3,5.9,3.88
				c0,0.02,0.02,0.75,0.06,2.19c0.85-0.02,2.12-0.08,3.62-0.16c0.02-0.58-0.03-1.84-0.04-2.15C9.53,3.46,9.47,2.8,9.32,2.23
				c-0.03-0.14-0.16-0.48-0.29-0.7c-0.1-0.16-0.13-0.27-0.1-0.31c0.1-0.16,0.36-0.17,0.8-0.03C9.95,1.25,10.35,1.43,10.35,1.43z"/>
			<path class="st0" d="M44.36,9.55c-0.19,0-0.62,0.02-1.27,0.06c-0.17,0.02-0.36,0.06-0.59,0.12c-0.15,0.04-0.28,0.04-0.36,0.02
				c-0.19-0.06-0.41-0.4-0.62-0.89c0,0-0.17-0.39-0.24-0.6c-0.14-0.45-0.13-0.69,0.03-0.81c0.04-0.02,0.15,0,0.3,0.13
				c0.22,0.12,0.56,0.24,0.7,0.27c0.57,0.15,1.23,0.22,1.53,0.23h2.32h3.57c0.56-0.02,1.87-0.04,4.14-0.06l1.82-0.03
				c0.93,0.03,1.39,0.23,1.41,0.65c0.02,0.39-0.28,0.63-1.08,0.79c-0.48,0.1-1.4,0.12-2.71,0.1c-0.42-0.02-1.65,0-3.74-0.02
				c-1.28,0-2.41,0-3.2,0.02L44.36,9.55z"/>
			<path class="st0" d="M115.92,15.17c-0.25-0.02-0.57-0.19-0.93-0.55c-0.61-0.62-1.21-1.14-1.74-1.64
				c-0.53-0.48-1.14-0.97-1.82-1.45c-0.44-0.32-0.97-0.65-1.55-1.01c-0.83,0.89-1.74,1.67-2.69,2.37c-1.5,1.12-3.15,1.91-4.95,2.37
				c-0.47,0.11-0.72,0.11-0.76,0c-0.04-0.1,0.15-0.25,0.55-0.44c1.42-0.7,2.58-1.38,3.47-2.03c0.89-0.63,1.66-1.27,2.29-1.9
				c0.63-0.62,1.37-1.51,2.22-2.63c0.59-0.77,1.21-1.74,1.87-2.94c-0.04,0-1.13,0.16-3.22,0.51c-0.32,0.04-0.81,0.12-1.47,0.22
				c-0.14,0.02-0.34,0.06-0.59,0.15c-0.27,0.06-0.44,0.1-0.51,0.1c-0.44-0.02-0.88-0.34-1.38-0.95c-0.15-0.23-0.21-0.37-0.15-0.45
				c0.02-0.06,0.19-0.08,0.51-0.06c0.31,0,0.57,0,0.81,0c0.36,0,0.7,0,0.99-0.02c0.51-0.04,1.34-0.13,2.5-0.25
				c0.6-0.06,1.23-0.12,2.22-0.27c0.18-0.03,0.28-0.1,0.42-0.19c0.15-0.08,0.32-0.19,0.4-0.2c0.24-0.02,0.6,0.07,1.12,0.59
				c0.42,0.42,0.58,0.63,0.56,0.84c0,0.22-0.15,0.38-0.32,0.47c-0.22,0.12-0.41,0.29-0.52,0.4c-0.13,0.11-0.54,0.66-1.53,2
				c-0.25,0.35-0.72,0.91-1.38,1.74c0.44,0.17,1.23,0.49,2.31,0.98c0.99,0.47,1.7,0.82,2.08,1.06c0.31,0.19,0.74,0.52,1.29,0.97
				c0.42,0.49,0.61,0.98,0.59,1.46C116.59,14.93,116.36,15.19,115.92,15.17z"/>
			<path class="st0" d="M101.27,5.47c-0.58-0.56-1.15-0.94-1.41-0.94c-0.33,0-0.63,0.46-0.82,0.48C98.46,5.05,97.9,5.1,97.5,5.1
				c-0.82,0.06-1.39,0.1-1.72,0.12c0-0.33,0-0.47,0-0.69c0-0.19,0.02-0.65,0.07-1.37c0.02-0.17,0.07-0.39,0.14-0.63
				c0.04-0.16,0.04-0.3,0.02-0.39c-0.07-0.2-0.37-0.44-0.89-0.66c0,0-0.46-0.2-0.69-0.26c-0.48-0.15-0.76-0.14-0.87,0.03
				c-0.02,0.05,0,0.16,0.11,0.34c0.14,0.23,0.27,0.6,0.31,0.75c0.16,0.62,0.22,1.31,0.24,1.65c0.01,0.18,0.02,0.83,0.03,1.36
				c-2.17,0.18-3.41,0.27-3.78,0.29c-0.4-0.3-0.68-0.55-0.87-0.68c-0.36-0.26-0.62-0.39-0.76-0.39c-0.11-0.02-0.2,0.06-0.21,0.25
				c-0.02,0.08,0.02,0.26,0.13,0.59c0.11,0.33,0.19,0.59,0.25,0.87c0.15,0.57,0.28,1.13,0.38,1.7c0.2,0.91,0.32,1.67,0.39,2.21
				c0.04,0.33,0.13,0.62,0.27,0.89c0.23,0.47,0.53,0.7,0.87,0.7c0.49,0,0.7-0.38,0.62-1.17c-0.19-0.96-0.34-1.7-0.49-2.21
				c-0.17-0.81-0.3-1.4-0.38-1.74c1.88-0.14,3.28-0.25,4.22-0.3c2.11-0.12,3.54-0.18,4.25-0.18c-0.4,1.44-0.87,2.67-1.42,3.71
				c-0.6,1.13-1.31,2.16-2.14,3.09c-0.4,0.45-0.97,0.98-1.67,1.55c-0.53,0.45-1.06,0.81-1.54,1.12c-0.49,0.32-0.72,0.55-0.68,0.66
				c0.02,0.06,0.08,0.08,0.17,0.08c0.13,0,0.4-0.08,0.85-0.28c0.63-0.25,1.19-0.53,1.65-0.82c0.8-0.51,1.51-1.04,2.1-1.57
				c0.87-0.79,1.62-1.75,2.35-2.9c0.66-1.05,1.23-2.12,1.98-3.84c0.19-0.43,0.68-0.56,0.75-0.89
				C101.58,5.86,101.54,5.74,101.27,5.47z"/>
			<path class="st0" d="M71.63,5.58c-0.32,0.23-0.52,0.46-0.7,0.76c-0.18,0.3-0.48,0.77-0.89,1.42c-0.36,0.57-0.8,1.23-1.32,1.97
				c-0.78,1.08-1.63,2.08-2.57,2.95c-1.36,1.29-3.22,2.48-4.81,3.13c-0.6,0.25-1.1,0.43-1.46,0.53c-0.36,0.08-0.55,0.06-0.59-0.04
				c-0.02-0.09,0.1-0.22,0.41-0.38c1.68-0.93,3.43-2.12,4.52-3.12c0.78-0.7,1.48-1.46,2.13-2.27c0.73-0.91,1.39-1.86,2-2.88
				c0.12-0.23,0.53-0.95,1.22-2.25c-0.61,0.06-2.1,0.16-2.88,0.29c-0.66,0.1-0.96,0.16-0.89,0.16c-0.11-0.02-0.22-0.08-0.36-0.23
				c-0.16-0.1-0.3-0.22-0.41-0.32c-0.86,0.97-1.5,1.64-1.93,2.03c-0.29,0.27-0.7,0.61-1.27,1.05c-0.5,0.37-1.04,0.67-1.61,0.93
				c-0.47,0.24-0.76,0.28-0.83,0.16c-0.08-0.12,0.06-0.28,0.37-0.56c1.32-1.08,2.38-2.17,3.19-3.25c0.44-0.58,0.78-1.07,1.23-1.93
				c0.34-0.65,0.5-1.14,0.56-1.46c0.04-0.22,0.06-0.45,0.06-0.65c-0.01-0.1-0.03-0.3,0.03-0.36c0.09-0.1,0.3,0,0.5,0.14
				c0.27,0.2,0.48,0.35,0.62,0.49c0.4,0.4,0.61,0.66,0.62,0.76c0.01,0.08-0.08,0.26-0.27,0.5c-0.05,0.09-0.15,0.23-0.26,0.39
				c-0.21,0.33-0.41,0.52-0.78,1.11c0,0,0.63-0.06,1.87-0.18c0.77-0.08,2.25-0.16,2.69-0.28c0.06-0.02,0.15-0.05,0.35-0.18
				c0.09-0.06,0.15-0.1,0.25-0.15c0.09-0.06,0.28-0.03,0.5,0.1c0.21,0.12,0.51,0.34,0.75,0.59c0.34,0.38,0.35,0.47,0.29,0.7
				C71.89,5.37,71.78,5.49,71.63,5.58z"/>
		</g>
	</g>
</g>
</svg>
