<?xml version="1.0" encoding="utf-8"?>
<!-- Generator: Adobe Illustrator 24.0.0, SVG Export Plug-In . SVG Version: 6.00 Build 0)  -->
<svg version="1.1" id="Layer_1" xmlns="http://www.w3.org/2000/svg" xmlns:xlink="http://www.w3.org/1999/xlink" x="0px" y="0px"
	 viewBox="0 0 414.1 47.84" style="enable-background:new 0 0 414.1 47.84;" xml:space="preserve">
<style type="text/css">
	.st0{fill:#251E1C;}
	.st1{fill:#6F2757;}
	.st2{fill:#263B60;}
	.st3{fill:#7B7937;}
</style>
<path class="st0" d="M76.9,14h-2.2v2.3h-2.8l0.6-2.2h-2.2l-1.1,4.5h5.6v3.3h-5.6v2.2h3.9c0,0.2-1.1,4.9-5,7.8v2.8
	c0,0,5.4-3.8,6.7-9.5v11.1H77v-11c0.3,1,2.3,6.8,5.6,9.3v-2.8c0,0-2.9-3.5-3.9-7.8l0,0h3.9v-2.2H77v-3.3h5.6v-2.2H77L76.9,14"/>
<path class="st0" d="M108.4,14h-2.2v3.3H104V14h-2.2v3.3H86.2v2.2h15.6v2.2c0,0-0.5,13.2,6.7,14.5v-2.8c0,0-4.2-0.2-4.5-11.7v-2.2
	h4.5v-2.2l0,0L108.4,14"/>
<path class="st0" d="M87.3,25.2h4.5v7.3c-2.6,0.7-4.5,1-4.5,1v2.8c7.9-1.9,12.2-4.4,12.2-4.4v-2.2c-1.8,0.9-3.8,1.7-5.6,2.2v-6.7
	h5.6V23H87.2L87.3,25.2"/>
<path class="st0" d="M198.9,10.3h-3.7v20.4c0,0,0.1,5.1-5.6,5.6h-11.1c-5.7-0.5-5.6-5.6-5.6-5.6V10.3h-3.7v20.4c0,0-0.4,8.7,9.3,9.3
	h11.1c9.7-0.6,9.3-9.3,9.3-9.3V10.3"/>
<path class="st0" d="M273.1,10.3h-3.7v10.2c0,0-0.4,14.6-18.5,15.8h-5.6V40h5.6c23-1.3,22.3-19.5,22.3-19.5V10.3"/>
<rect x="243.5" y="10.3" class="st0" width="3.7" height="18.6"/>
<path class="st0" d="M308.4,14h-3.7v7.5c0,0,0.9,14.1-16.7,14.8h-9.2V40h9.2c21.4-0.4,20.4-18.5,20.4-18.5V14"/>
<rect x="278.7" y="10.3" class="st0" width="11.1" height="3.7"/>
<rect x="384.4" y="12.2" class="st0" width="13" height="3.7"/>
<rect x="384.4" y="19.6" class="st0" width="13" height="3.7"/>
<path class="st0" d="M414.1,21.4v-3.7h-3.7v3.7c0,0,0.6,13.9-14.9,14.9h-11.1V40h11.1c16-0.6,18.3-12.1,18.6-16.7
	C414.1,22.1,414.1,21.4,414.1,21.4"/>
<rect x="349.2" y="23.3" class="st0" width="29.7" height="3.7"/>
<path class="st0" d="M338.1,15.9L338.1,15.9h-16.7c0-0.5,0-1,0-1.5v-4.1h-3.7v5.6c0,0,0.2,6.1-3.7,8.3v4.6c0,0,5.2-1.8,6.9-9.3h13.5
	c-0.4,4.8-2.7,16.8-18.6,16.8V40c0,0,21.6,0.8,22.2-20.4h7.4v-3.7L338.1,15.9L338.1,15.9"/>
<rect x="411.8" y="10.3" class="st0" width="2.3" height="5.6"/>
<rect x="407.6" y="10.3" class="st0" width="2.3" height="5.6"/>
<polyline class="st0" points="154.8,21.8 159.3,21.8 159.3,19.6 154.8,19.6 154.8,14 152.6,14 152.6,19.6 148.1,19.6 148.1,21.8 
	152.6,21.8 152.6,33.5 147,33.5 147,35.7 160.4,35.7 160.4,33.5 154.8,33.5 154.8,21.8 "/>
<path class="st0" d="M69.1,27.9v-2.8c-2.7-1.8-3.2-4.8-3.3-5.5l0,0h2.5v-2.2h-2.5v-3.3h-2.2v3.3h-3.3v2.2h3
	c-0.1,0.8-0.9,5.2-4.1,6.7v2.8c0,0,3-1.4,4.5-4.4v11.6h2.2V24.6C67.1,26.5,69.1,27.9,69.1,27.9"/>
<path class="st0" d="M113.3,28.5h6.1c-0.2,0.5-1.5,4.2-1.8,5c-1.9,0-3.3,0-3.3,0v2.8c4.6,0,12.9-0.9,15-1.1c0.2,0.5,0.4,0.9,0.6,1.1
	h2.8c0,0-2-4.3-3.3-6.7h-2.8c0,0,0.9,1.7,1.7,3.4c-2.4,0.3-5.6,0.4-8.4,0.4c1.2-2.3,2.1-4.7,2.2-5h11.1v-2.1h-20v2.2"/>
<path class="st0" d="M124.4,14h-2.2c-4.4,4.9-10,6.1-10,6.1v2.8c1.6-0.6,3.1-1.3,4.5-2v2h13.4v-2c1.3,0.7,2.8,1.4,4.4,2v-2.8
	C134.4,20.2,128.8,18.9,124.4,14 M117,20.7c3.9-2.2,6.3-4.5,6.3-4.5s2.4,2.3,6.3,4.5H117z"/>
<path class="st0" d="M148.1,29v-2.7c-2.3-1.3-3.3-2.5-3.5-2.8c1.3-1.8,2.4-4.2,3-7.2h-3.9v-2.2h-2.3v2.2h-3.3v2.2h6.7
	c0,0-0.7,4.8-7.8,7.8v2.8c0,0,2.1-0.6,4.5-2.4v9.6h2.2V25.7C145,27.2,148.1,29,148.1,29"/>
<path class="st0" d="M236,21.4v-5.6c0.1-6-5.6-5.6-5.6-5.6h-24v29.7h3.7v-13h18.5c0,0,3.7-0.2,3.7,3.7v9.3h3.7v-11
	c0-2.5-1.9-3.8-1.9-3.8C236.2,24.4,236,21.4,236,21.4 M232.3,21.4c0,1-0.8,1.9-1.9,1.9H210V14h20.4c1,0,1.9,0.8,1.9,1.9
	C232.3,15.9,232.3,21.4,232.3,21.4z"/>
<path class="st1" d="M20.5,37.5C11.6,37.5,5.6,31,5.6,31C0.1,25.3,0,17.1,0,17.1h5.6c0,0-0.9,8.4,7.4,13.9c0,0,4.2,3.1,10.3,2.8
	c0,0,9.4,0.4,14.8-9.3c0,0,4.9-8.3,0-17.5c0,0-1.2-3.1-6-7c0,0,7.3,4.3,9,13.4c0,0,2.3,13.2-8.5,20.5C32.6,33.8,27.9,37.5,20.5,37.5
	"/>
<path class="st2" d="M20.6,1.5c3.5-0.5,8.1,0,12.8,4.1l-2.8,2.9c0,0-3.6-4-9.2-3.6c0,0-9.2,0.2-11.6,10c0,0-1.4,6.3,2.6,11
	c0,0,3.3,4.6,9.4,5c0,0-8.7,0.1-12.7-8.9c0,0-5-11.1,6-18.7C15,3.5,17,2.1,20.6,1.5"/>
<path class="st3" d="M27,23.5c1.6-1.1,3-3.1,3.2-6.5h2.3c0,0,0.2,5.7-4.6,8.4c-1.2,0.7-2.9,1.3-4.8,1.4c0,0-8.9,0.2-9.8-9
	c0,0-0.5-5,3.5-8.2c0,0-5.9,5.4-1.2,12.3c0,0,2.4,3.4,7.4,3.1C23.1,25.1,24.9,25,27,23.5"/>
<path class="st0" d="M22.2,43.6c-0.3-0.4-1.1-0.4-1.1-0.4h-0.9c-0.7,0-0.8,0.4-0.9,0.4v-0.4h-0.6v4.2h0.7v-3.1
	c0.1-0.5,0.6-0.6,0.6-0.6c0.6-0.1,1.3,0,1.3,0c0.7,0,0.6,0.8,0.6,0.8v2.9h0.6v-2.9C22.5,43.9,22.2,43.6,22.2,43.6"/>
<rect x="23.2" y="42" class="st0" width="0.6" height="5.4"/>
<rect x="17.1" y="43.2" class="st0" width="0.6" height="4.2"/>
<rect x="17.1" y="42" class="st0" width="0.7" height="0.7"/>
<polyline class="st0" points="12.6,46.8 12.6,42.1 12,42.1 12,47.4 16.2,47.4 16.2,46.8 12.6,46.8 "/>
<polyline class="st0" points="26.6,43.2 25.8,43.2 23.7,45.1 23.7,45.2 25.9,47.4 26.7,47.4 24.4,45.1 26.6,43.2 "/>
<path class="st0" d="M31,44.5c0,0,0-0.6-0.2-0.9c0,0-0.3-0.4-1.2-0.4h-2.2v0.5h1.9l1,0.2c0,0,0.2,0.2,0.2,0.9h-1.9
	c0,0-0.6,0-0.9,0.3c0,0-0.3,0.2-0.3,0.9c0,0-0.1,0.9,0.3,1.1c0,0,0.3,0.3,1.1,0.3h0.8c0,0,0.8,0,1-0.4v0.4h0.5L31,44.5 M30.1,46.8
	c0,0-0.8,0.2-1.8,0c0,0-0.4-0.1-0.4-0.5c0,0-0.1-0.5,0.1-0.8c0,0,0.1-0.3,0.7-0.3h1.9v1C30.5,46.3,30.5,46.7,30.1,46.8"/>
<path class="st0" d="M38.7,46.9c0,0-0.8,0-1-0.3c0,0-0.3-0.2-0.2-1.2h2c0,0,0.7,0,0.9-0.2c0,0,0.3-0.2,0.3-1c0,0,0-0.8-0.6-1
	c0,0-0.3-0.1-0.9-0.1c0,0-0.6,0-0.9,0c0,0-0.7,0-1,0.3c0,0-0.3,0.3-0.3,0.8c0,0-0.1,1.2,0,1.9c0,0,0,0.8,0.8,1.1
	c0,0,0.3,0.1,0.6,0.1h2.3v-0.5L38.7,46.9 M37.6,44c0.2-0.3,0.9-0.3,0.9-0.3c0.8,0,1.3,0.1,1.3,0.1c0.4,0.1,0.4,0.6,0.4,0.6
	c0,0.3-0.2,0.5-0.2,0.5l-0.8,0.2h-1.8C37.4,44.2,37.6,44,37.6,44"/>
<path class="st0" d="M33.2,45.2c0.5,0,1,0,1,0c0.4,0,0.8,0,0.8,0c0.7-0.1,0.7-0.7,0.7-0.7V44c0-0.3,0.3-0.3,0.3-0.3h0.3v-0.5h-0.5
	c-0.3,0-0.4,0.3-0.4,0.3c-0.3-0.2-0.8-0.2-0.8-0.2c-0.4,0-1.7,0-1.7,0c-0.5,0-0.7,0.4-0.7,0.4l-0.1,0.7c0,0.5,0.4,0.7,0.4,0.7
	c-0.5,0.3-0.4,0.7-0.4,0.7l0.1,0.2c-0.4,0.1-0.4,0.6-0.4,0.6c-0.1,0.5,0.1,0.8,0.1,0.8c0.2,0.4,0.7,0.4,0.7,0.4c1.9,0.1,2.7,0,2.7,0
	c0.7-0.1,0.6-1,0.6-1c0-0.7-0.4-0.9-0.4-0.9l-0.9-0.1h-1.7c-0.4,0-0.3-0.2-0.3-0.2L33.2,45.2 M32.8,43.8c0,0,0.1-0.2,0.5-0.2h1.3
	c0,0,0.5,0,0.5,0.4c0,0,0.1,0.5-0.3,0.6c0,0-0.1,0-0.6,0h-0.8l-0.6-0.3C32.8,44.5,32.6,44.1,32.8,43.8 M32.8,46.2h0.3h1.7
	c0,0,0.6,0,0.7,0.3v0.6c0,0-0.1,0.2-0.5,0.2c0,0-1.2,0.1-1.8,0l-0.6-0.2c0,0-0.2-0.2-0.1-0.7L32.8,46.2"/>
<path class="st0" d="M3,47.4c-1.3,0-1.7-0.3-1.7-0.3c-0.6-0.4-0.6-1.4-0.6-1.4v-3.6h0.6v3.4c0,0-0.1,0.9,0.4,1.2
	c0,0,0.3,0.2,1.3,0.2l0,0c1,0,1.3-0.2,1.3-0.2c0.5-0.3,0.4-1.2,0.4-1.2v-3.4h0.6v3.6c0,0,0.1,1-0.6,1.4C4.7,47.1,4.3,47.4,3,47.4
	L3,47.4"/>
<path class="st0" d="M10.9,46.1v1.3h-0.5v-1.5c0-0.4-0.2-0.6-0.2-0.6l-0.6-0.2H6.7v2.3H6.1v-5.3h3.4c0,0,0.6,0,1,0.3
	c0,0,0.3,0.2,0.4,0.7v0.7c0,0,0,0.9-0.6,1c0,0,0.4,0.1,0.5,0.5C10.9,45.3,10.9,45.5,10.9,46.1 M9.4,42.6H6.7v1.9h3
	c0.4,0,0.6-0.3,0.6-0.6c0.1-0.3,0-0.8,0-1C10.1,42.6,9.4,42.6,9.4,42.6"/>
</svg>
